<ttFont>
          <CharString index="0">
            110 0 91 -41 66 -83 6 -8 2 -8 0 -8 0 -30 -32 -30 -19 0 -4 0 -4 1 -2 3 -54 68 -73 40 -85 0 -126 0 -67 -111 0 -144 rrcurveto
            0 -147 78 -66 71 -48 rrcurveto
            135 -90 rlineto
            104 -69 96 -93 0 -211 0 -222 -120 -169 -194 0 -132 0 -108 57 -78 126 -3 5 -1 5 0 6 0 28 31 33 23 0 6 0 6 -2 4 -6 rrcurveto
            73 -111 74 -43 102 0 130 0 80 114 0 165 0 159 -65 61 -89 61 rrcurveto
            -137 93 rlineto
            -85 58 -106 87 0 204 0 216 114 150 182 0 rrcurveto
            return
          </CharString>
          <CharString index="1">
            -10 -7 23 26 hvcurveto
            0 7 1 7 1 7 rrcurveto
            223 1478 rlineto
            6 42 15 28 16 0 rrcurveto
            20 hlineto
            9 8 -22 -26 hvcurveto
            0 -7 -1 -8 -1 -7 rrcurveto
            -223 -1478 rlineto
            -6 -42 -14 -28 -16 0 rrcurveto
            return
          </CharString>
          <CharString index="2">
            58 30 120 184 188 -28 118 -60 -60 -30 -118 -188 -184 32 -120 58 hvcurveto
            return
          </CharString>
          <CharString index="3">
            -106 -56 137 250 248 54 143 108 106 54 -143 -248 -250 -56 -137 -104 hvcurveto
            return
          </CharString>
          <CharString index="4">
            59 29 120 184 188 -28 119 -60 -59 -31 -119 -188 -184 33 -120 57 hvcurveto
            return
          </CharString>
          <CharString index="5">
            -106 -56 138 250 248 54 143 108 106 54 -143 -248 -250 -56 -138 -104 hvcurveto
            return
          </CharString>
          <CharString index="6">
            -19 -14 4 41 hvcurveto
            198 vlineto
            20 -6 2 -9 vhcurveto
            -188 hlineto
            -17 -14 4 33 hvcurveto
            15 vlineto
            34 14 3 17 vhcurveto
            188 hlineto
            9 6 2 20 hvcurveto
            193 vlineto
            41 14 4 19 vhcurveto
            32 hlineto
            18 13 -4 -41 hvcurveto
            -193 vlineto
            -20 7 -2 10 vhcurveto
            185 hlineto
            16 15 -3 -34 hvcurveto
            -15 vlineto
            -33 -15 -4 -16 vhcurveto
            -185 hlineto
            -10 -7 -2 -20 hvcurveto
            -198 vlineto
            -41 -13 -4 -18 vhcurveto
            return
          </CharString>
          <CharString index="7">
            -2 -1 -3 -1 -2 0 rrcurveto
            -9 -7 10 29 hvcurveto
            12 vlineto
            0 32 6 -1 16 26 25 41 13 77 0 32 rrcurveto
            16 0 11 -6 vhcurveto
            -38 hlineto
            -13 -8 14 38 hvcurveto
            100 vlineto
            43 19 20 15 vhcurveto
            76 hlineto
            14 12 -30 -43 hvcurveto
            -61 vlineto
            0 -237 -60 -104 -48 -23 rrcurveto
            return
          </CharString>
          <CharString index="8">
            -15 -12 12 43 hvcurveto
            109 vlineto
            43 12 12 15 vhcurveto
            92 hlineto
            15 11 -12 -43 hvcurveto
            -109 vlineto
            -43 -11 -12 -15 vhcurveto
            return
          </CharString>
          <CharString index="9">
            -9 -6 9 22 hvcurveto
            11 vlineto
            0 4 0 4 1 6 rrcurveto
            248 1327 rlineto
            8 41 12 12 16 2 rrcurveto
            95 hlineto
            16 -2 12 -12 7 -41 rrcurveto
            234 -1327 rlineto
            2 -12 4 -4 0 -10 rrcurveto
            -21 -5 -9 -10 vhcurveto
            -71 hlineto
            -15 0 -18 8 -7 41 rrcurveto
            -45 288 rlineto
            -1 4 -3 6 -2 0 rrcurveto
            -313 hlineto
            -2 0 -2 -7 -1 -4 rrcurveto
            -52 -286 rlineto
            -8 -41 -10 -9 -17 0 rrcurveto
            return
          </CharString>
          <CharString index="10">
            269 hlineto
            3 1 5 4 hvcurveto
            0 2 0 3 -2 1 rrcurveto
            -133 854 rlineto
            -1 2 0 2 -1 0 rrcurveto
            -2 0 -3 -1 hvcurveto
            -143 -849 rlineto
            -1 -5 0 -3 0 -1 rrcurveto
            -4 3 -7 7 vhcurveto
            return
          </CharString>
          <CharString index="11">
            -16 -11 1 38 hvcurveto
            1358 vlineto
            40 11 1 16 vhcurveto
            316 hlineto
            186 125 -97 -299 hvcurveto
            0 -111 -30 -102 -84 -54 -5 -3 -3 -4 0 -2 0 -2 4 -4 5 -2 92 -57 59 -111 0 -166 rrcurveto
            -328 -129 -96 -240 vhcurveto
            return
          </CharString>
          <CharString index="12">
            196 hlineto
            189 69 121 211 189 -93 112 -114 hvcurveto
            -247 hlineto
            -8 -6 -2 -19 hvcurveto
            -596 vlineto
            -16 6 0 8 vhcurveto
            return
          </CharString>
          <CharString index="13">
            254 hlineto
            95 69 80 156 211 -69 94 -145 hvcurveto
            -204 hlineto
            -8 -6 0 -20 hvcurveto
            -505 vlineto
            -16 6 0 8 vhcurveto
            return
          </CharString>
          <CharString index="14">
            -173 -189 43 692 662 188 69 184 hvcurveto
            60 0 53 -12 28 -13 4 -2 8 -3 0 -11 rrcurveto
            -66 vlineto
            -9 -3 -1 -4 vhcurveto
            -3 0 -57 23 -69 0 rrcurveto
            -142 -132 -68 -569 -574 110 -67 146 hvcurveto
            40 0 55 9 33 11 4 1 4 -9 0 -4 rrcurveto
            -69 vlineto
            0 -4 -4 -7 -4 -1 -41 -15 -58 -6 -38 0 rrcurveto
            return
          </CharString>
          <CharString index="15">
            191 hlineto
            219 55 145 488 439 -71 186 -200 hvcurveto
            -195 hlineto
            -6 -5 -5 -12 hvcurveto
            -1221 vlineto
            -15 4 -5 8 vhcurveto
            return
          </CharString>
          <CharString index="16">
            -15 -8 4 35 hvcurveto
            1368 vlineto
            27 8 4 15 vhcurveto
            303 hlineto
            237 141 -151 -564 -607 -113 -116 -273 hvcurveto
            return
          </CharString>
          <CharString index="17">
            -15 -8 1 34 hvcurveto
            1368 vlineto
            30 8 5 15 vhcurveto
            466 hlineto
            14 9 -1 -30 hvcurveto
            -28 vlineto
            -31 -9 0 -14 vhcurveto
            -367 hlineto
            -8 -2 -8 -20 hvcurveto
            -519 vlineto
            -4 5 -10 1 vhcurveto
            319 hlineto
            15 8 -3 -28 hvcurveto
            -29 vlineto
            -30 -8 -3 -15 vhcurveto
            -318 hlineto
            -1 -6 -17 -4 hvcurveto
            -583 379 vlineto
            14 9 0 -31 hvcurveto
            -28 vlineto
            -30 -9 -1 -14 vhcurveto
            return
          </CharString>
          <CharString index="18">
            -15 -8 1 34 hvcurveto
            1368 vlineto
            30 8 5 15 vhcurveto
            444 hlineto
            14 9 -1 -30 hvcurveto
            -28 vlineto
            -31 -9 0 -14 vhcurveto
            -345 hlineto
            -8 -2 -6 -20 hvcurveto
            -530 vlineto
            -4 5 -8 1 vhcurveto
            300 hlineto
            15 8 -1 -28 hvcurveto
            -33 vlineto
            -30 -8 -1 -15 vhcurveto
            -299 hlineto
            -1 -6 -15 -4 hvcurveto
            -633 vlineto
            -34 -8 -1 -15 vhcurveto
            return
          </CharString>
          <CharString index="19">
            -15 0 -14 8 -6 46 -2 24 -12 121 0 42 0 5 -2 3 -1 0 -2 0 -2 -1 -1 -6 -26 -150 -83 -91 -118 0 rrcurveto
            -179 -195 77 658 687 223 44 204 hvcurveto
            73 0 56 -16 31 -11 4 -3 9 -3 0 -11 rrcurveto
            -66 vlineto
            -9 -4 -1 -4 vhcurveto
            -2 0 -76 26 -76 0 rrcurveto
            -161 -163 -45 -592 -564 135 -77 133 161 34 216 261 59 -3 10 -5 hvcurveto
            -175 hlineto
            -16 -15 1 34 hvcurveto
            33 vlineto
            34 14 2 15 vhcurveto
            266 hlineto
            15 11 0 -43 hvcurveto
            -647 vlineto
            -43 -11 -12 -15 vhcurveto
            return
          </CharString>
          <CharString index="20">
            -16 -8 4 43 hvcurveto
            1344 vlineto
            43 8 4 16 vhcurveto
            62 hlineto
            16 10 -4 -43 hvcurveto
            -587 vlineto
            -4 5 -13 1 vhcurveto
            427 hlineto
            2 7 16 4 hvcurveto
            584 vlineto
            43 10 4 17 vhcurveto
            62 hlineto
            14 9 -4 -43 hvcurveto
            -1344 vlineto
            -43 -9 -4 -14 vhcurveto
            -62 hlineto
            -17 -10 4 43 hvcurveto
            625 vlineto
            4 -7 15 -1 vhcurveto
            -427 hlineto
            -1 -5 -13 -4 hvcurveto
            -627 vlineto
            -43 -10 -4 -16 vhcurveto
            return
          </CharString>
          <CharString index="21">
            -15 -8 4 43 hvcurveto
            1344 vlineto
            43 8 4 15 vhcurveto
            66 hlineto
            15 8 -4 -43 hvcurveto
            -1344 vlineto
            -43 -8 -4 -15 vhcurveto
            return
          </CharString>
          <CharString index="22">
            -6 -5 3 22 hvcurveto
            53 vlineto
            23 6 4 5 vhcurveto
            159 2 55 8 0 430 rrcurveto
            987 vlineto
            38 8 13 13 vhcurveto
            70 hlineto
            13 8 -13 -38 hvcurveto
            -1003 vlineto
            -521 -120 -8 -206 vhcurveto
            return
          </CharString>
          <CharString index="23">
            -15 -8 20 43 hvcurveto
            1312 vlineto
            43 8 20 15 vhcurveto
            63 hlineto
            17 9 -20 -43 hvcurveto
            0 -632 312 636 rlineto
            15 34 11 25 17 0 rrcurveto
            81 hlineto
            9 4 -7 -10 hvcurveto
            0 -11 -4 -14 -8 -16 rrcurveto
            -314 -625 rlineto
            -1 -4 -3 -6 0 -9 0 -5 0 -5 4 -7 rrcurveto
            333 -652 rlineto
            12 -22 5 -17 0 -11 rrcurveto
            -11 -5 -6 -7 vhcurveto
            -66 hlineto
            -16 0 -11 11 -24 46 rrcurveto
            -343 651 0 -650 rlineto
            -43 -10 -15 -17 vhcurveto
            return
          </CharString>
          <CharString index="24">
            -15 -8 4 43 hvcurveto
            1344 vlineto
            43 8 4 15 vhcurveto
            66 hlineto
            15 8 -4 -43 hvcurveto
            -1281 vlineto
            -20 6 0 8 vhcurveto
            266 hlineto
            14 10 0 -29 hvcurveto
            -30 vlineto
            -30 -10 -1 -14 vhcurveto
            return
          </CharString>
          <CharString index="25">
            -13 -10 18 39 hvcurveto
            0 6 42 1311 rlineto
            1 42 7 20 15 2 rrcurveto
            80 hlineto
            15 -2 17 -11 10 -41 rrcurveto
            218 -1131 rlineto
            1 -3 8 0 0 3 rrcurveto
            217 1123 rlineto
            9 41 14 19 15 2 rrcurveto
            91 hlineto
            14 -2 7 -20 1 -42 rrcurveto
            43 -1311 0 -7 rlineto
            -38 -8 -18 -14 vhcurveto
            -51 hlineto
            -15 0 -9 20 -1 43 rrcurveto
            -33 1162 rlineto
            0 2 -5 2 0 -2 rrcurveto
            -223 -1166 rlineto
            -8 -40 -14 -20 -15 0 -1 0 -39 -1 0 0 -15 0 -12 21 -9 40 rrcurveto
            -219 1156 rlineto
            0 -3 -3 -2 hvcurveto
            -35 -1149 rlineto
            -1 -43 -5 -20 -15 0 rrcurveto
            return
          </CharString>
          <CharString index="26">
            -16 -8 12 43 hvcurveto
            1334 vlineto
            43 8 6 16 vhcurveto
            59 hlineto
            9 0 8 -9 7 -16 rrcurveto
            457 -1118 rlineto
            1 -2 4 12 0 3 rrcurveto
            1081 vlineto
            43 10 6 17 vhcurveto
            54 hlineto
            15 9 -6 -43 hvcurveto
            -1342 vlineto
            -43 -9 -4 -15 vhcurveto
            -46 hlineto
            -10 0 -18 26 -7 17 rrcurveto
            -460 1102 rlineto
            0 -5 -6 -3 hvcurveto
            -1081 vlineto
            -43 -10 -12 -16 vhcurveto
            return
          </CharString>
          <CharString index="27">
            171 61 105 541 491 -57 142 -175 -173 -57 -158 -475 -530 62 -116 168 hvcurveto
            return
          </CharString>
          <CharString index="28">
            -252 -93 142 597 558 95 169 250 254 93 -161 -566 -605 -91 -134 -256 hvcurveto
            return
          </CharString>
          <CharString index="29">
            -15 -8 7 38 hvcurveto
            1347 vlineto
            43 8 3 15 vhcurveto
            233 hlineto
            187 185 -17 -436 -415 -160 -30 -180 hvcurveto
            -168 hlineto
            -5 -3 -3 -11 hvcurveto
            -481 vlineto
            -37 -8 -8 -15 vhcurveto
            return
          </CharString>
          <CharString index="30">
            161 hlineto
            158 76 33 321 350 -111 13 -151 hvcurveto
            -132 hlineto
            -5 -3 -4 -9 hvcurveto
            -692 vlineto
            -8 2 -4 5 vhcurveto
            return
          </CharString>
          <CharString index="31">
            -15 -8 5 38 hvcurveto
            1350 vlineto
            43 8 2 15 vhcurveto
            263 hlineto
            203 177 -22 -334 hvcurveto
            0 -201 -69 -77 -102 -43 -3 -2 -3 -3 0 -3 0 -2 1 -2 4 0 75 -35 91 -33 3 -216 rrcurveto
            -411 vlineto
            -38 -11 -16 -12 vhcurveto
            -68 hlineto
            -15 -6 14 38 hvcurveto
            0 119 0 327 rlineto
            177 -121 29 -78 vhcurveto
            -231 hlineto
            -6 -3 -5 -11 hvcurveto
            -645 vlineto
            -37 -7 -6 -16 vhcurveto
            return
          </CharString>
          <CharString index="32">
            177 hlineto
            172 82 59 227 237 -108 32 -174 hvcurveto
            -149 hlineto
            -5 -3 -4 -9 hvcurveto
            -527 vlineto
            -8 2 -7 6 vhcurveto
            return
          </CharString>
          <CharString index="33">
            -14 -9 4 43 hvcurveto
            1270 vlineto
            20 -3 5 -7 vhcurveto
            -181 hlineto
            -15 -9 0 31 hvcurveto
            28 vlineto
            36 9 1 15 vhcurveto
            491 hlineto
            15 8 -1 -36 hvcurveto
            -28 vlineto
            -31 -8 0 -15 vhcurveto
            -178 hlineto
            -7 -3 -5 -20 hvcurveto
            -1270 vlineto
            -43 -9 -4 -15 vhcurveto
            return
          </CharString>
          <CharString index="34">
            -223 -145 57 557 hvcurveto
            791 vlineto
            43 9 4 15 vhcurveto
            65 hlineto
            14 9 -4 -43 hvcurveto
            -789 vlineto
            -469 91 -53 164 166 74 44 478 vhcurveto
            789 vlineto
            43 9 4 15 vhcurveto
            65 hlineto
            15 8 -4 -43 hvcurveto
            -791 vlineto
            -558 -134 -56 -217 vhcurveto
            return
          </CharString>
          <CharString index="35">
            -14 2 -13 24 -7 42 rrcurveto
            -191 1302 rlineto
            -3 13 -1 12 0 10 rrcurveto
            21 6 12 9 vhcurveto
            64 hlineto
            15 0 14 -25 7 -43 rrcurveto
            150 -1080 181 1072 rlineto
            8 42 15 14 15 0 rrcurveto
            67 hlineto
            16 -1 14 -13 8 -43 rrcurveto
            201 -1102 143 1111 rlineto
            6 43 13 25 15 0 rrcurveto
            57 hlineto
            10 5 -12 -20 hvcurveto
            0 -10 -2 -12 -2 -14 rrcurveto
            -179 -1302 rlineto
            -6 -42 -12 -24 -14 -2 rrcurveto
            -64 hlineto
            -17 2 -13 24 -8 42 rrcurveto
            -209 1157 -197 -1157 rlineto
            -7 -41 -8 -24 -14 -3 rrcurveto
            return
          </CharString>
          <CharString index="36">
            -15 -8 9 43 hvcurveto
            0 488 -220 840 rlineto
            -6 18 -1 8 0 10 rrcurveto
            13 8 9 12 vhcurveto
            59 hlineto
            15 0 18 -11 8 -31 rrcurveto
            169 -667 167 667 rlineto
            6 27 16 15 16 0 rrcurveto
            52 hlineto
            13 6 -9 -15 hvcurveto
            0 -10 0 -8 -5 -16 rrcurveto
            -219 -837 0 -491 rlineto
            -43 -8 -9 -15 vhcurveto
            return
          </CharString>
          <CharString index="37">
            -14 -8 1 30 hvcurveto
            21 vlineto
            0 28 4 7 5 18 rrcurveto
            353 1196 rlineto
            2 10 3 9 0 9 rrcurveto
            10 -4 9 -7 vhcurveto
            -328 hlineto
            -15 -9 0 31 hvcurveto
            28 vlineto
            30 9 1 15 vhcurveto
            446 hlineto
            14 9 -1 -30 hvcurveto
            -17 vlineto
            0 -44 -8 -26 -5 -17 rrcurveto
            -345 -1174 rlineto
            -3 -9 -2 -8 0 -8 rrcurveto
            -7 2 -7 5 vhcurveto
            342 hlineto
            13 10 2 -31 hvcurveto
            -30 vlineto
            -30 -10 -1 -13 vhcurveto
            return
          </CharString>
          <CharString index="38">
            -13 0 -4 22 -3 17 rrcurveto
            -62 332 rlineto
            -2 12 -2 14 0 11 rrcurveto
            16 3 12 7 vhcurveto
            64 hlineto
            16 0 6 -12 4 -43 rrcurveto
            20 -314 rlineto
            1 -14 0 -12 0 -9 rrcurveto
            -27 -4 -5 -10 vhcurveto
            return
          </CharString>
          <CharString index="39">
            -142 -62 98 152 hvcurveto
            0 358 348 -7 55 21 rrcurveto
            58 vlineto
            148 -17 118 -116 vhcurveto
            -107 0 -27 -66 -31 -92 -9 -25 -8 -7 -13 4 -14 3 -39 11 -3 13 -3 6 3 24 5 15 34 114 57 84 157 0 rrcurveto
            165 72 -109 -269 hvcurveto
            -593 vlineto
            -35 -7 -15 -12 vhcurveto
            -14 hlineto
            -11 0 -9 18 -4 23 -3 30 -20 102 -1 36 -1 6 -5 3 -2 -9 -28 -132 -62 -86 -126 0 rrcurveto
            return
          </CharString>
          <CharString index="40">
            128 57 182 221 14 0 49 -6 hvcurveto
            -1 0 -56 -8 -3 -1 -197 -39 -48 -110 0 -130 rrcurveto
            -110 34 -68 92 vhcurveto
            return
          </CharString>
          <CharString index="41">
            -79 0 -83 57 -45 164 -1 2 -1 3 -1 0 -12 0 1 -214 -40 0 rrcurveto
            -11 hlineto
            -14 -5 13 43 hvcurveto
            1310 vlineto
            43 9 26 14 vhcurveto
            60 hlineto
            15 8 -26 -43 hvcurveto
            -521 vlineto
            -9 2 -2 1 1 2 4 1 vhcurveto
            41 122 76 58 74 0 rrcurveto
            121 113 -112 -404 -391 -131 -124 -115 hvcurveto
            return
          </CharString>
          <CharString index="42">
            90 70 116 317 313 -67 115 -86 -87 -86 -165 -263 -245 73 -188 93 hvcurveto
            return
          </CharString>
          <CharString index="43">
            -122 -148 54 465 463 146 49 122 hvcurveto
            32 0 49 -7 36 -14 rrcurveto
            1 7 -10 -2 hvcurveto
            -60 vlineto
            0 -3 -7 -10 -1 1 -33 10 -31 8 -33 0 rrcurveto
            -82 -98 -22 -403 -389 88 -43 94 hvcurveto
            30 0 33 8 32 11 rrcurveto
            1 9 -11 -2 hvcurveto
            -58 vlineto
            0 -3 -9 -10 -1 -1 -32 -12 -43 -9 -40 0 rrcurveto
            return
          </CharString>
          <CharString index="44">
            -42 -169 -67 -67 -102 0 rrcurveto
            -116 -134 63 453 444 118 71 131 hvcurveto
            74 0 64 -57 41 -120 1 -3 3 -5 1 -4 rrcurveto
            1 0 11 2 hvcurveto
            527 vlineto
            43 9 22 16 vhcurveto
            57 hlineto
            14 10 -22 -43 hvcurveto
            -1303 vlineto
            -43 -5 -24 -15 vhcurveto
            -12 hlineto
            -35 0 -3 196 -9 28 rrcurveto
            return
          </CharString>
          <CharString index="45">
            277 -74 151 -92 -88 -72 -70 -357 -345 63 -89 96 98 69 169 264 vhcurveto
            return
          </CharString>
          <CharString index="46">
            -146 -135 104 412 434 144 81 128 154 88 -126 -337 -32 -4 -43 -34 hvcurveto
            -362 hlineto
            -3 -3 -6 -9 hvcurveto
            1 -173 39 -220 139 0 121 0 16 134 6 78 2 9 3 10 4 0 rrcurveto
            52 hlineto
            7 0 5 -3 1 -10 0 -2 1 -31 0 -6 rrcurveto
            -137 -70 -127 -154 vhcurveto
            return
          </CharString>
          <CharString index="47">
            312 hlineto
            1 0 7 2 hvcurveto
            -10 260 -37 116 -108 0 -74 0 -69 -57 -18 -269 rrcurveto
            -6 0 -53 3 vhcurveto
            return
          </CharString>
          <CharString index="48">
            -14 -12 29 43 hvcurveto
            815 vlineto
            20 0 5 -8 vhcurveto
            -50 hlineto
            -15 -9 3 25 hvcurveto
            37 vlineto
            24 9 5 15 vhcurveto
            50 hlineto
            8 0 8 22 332 46 71 151 hvcurveto
            9 0 48 -1 4 -1 9 -1 11 1 0 -28 rrcurveto
            -29 vlineto
            -33 0 -3 -13 vhcurveto
            -53 hlineto
            -90 -16 -47 -204 hvcurveto
            -81 vlineto
            -3 2 -3 1 vhcurveto
            140 hlineto
            15 7 -3 -23 hvcurveto
            -40 vlineto
            -24 -7 -4 -15 vhcurveto
            -134 hlineto
            -7 -2 -5 -20 hvcurveto
            -815 vlineto
            -43 -11 -29 -14 vhcurveto
            return
          </CharString>
          <CharString index="49">
            -166 -71 70 99 hvcurveto
            0 59 32 91 45 75 2 4 2 5 0 5 0 5 -3 3 -6 3 -51 24 -24 33 0 49 0 97 30 31 34 44 4 6 2 5 0 5 rrcurveto
            0 6 -2 5 -3 4 -47 62 -26 83 0 96 0 188 61 154 185 0 25 0 21 -7 17 -4 9 -2 4 3 2 16 rrcurveto
            24 246 rlineto
            3 40 10 3 17 0 rrcurveto
            49 hlineto
            10 0 7 -19 -5 -22 rrcurveto
            -67 -277 rlineto
            -4 -18 5 -8 10 -7 62 -48 48 -107 0 -131 0 -197 -50 -131 -179 0 -45 0 -43 12 -30 18 -27 -25 -29 -38 0 -60 rrcurveto
            -44 32 -39 69 vhcurveto
            118 hlineto
            171 56 -80 -119 -195 -116 -71 -172 hvcurveto
            return
          </CharString>
          <CharString index="50">
            151 55 63 124 101 -62 31 -80 hvcurveto
            -116 hlineto
            -29 -54 -102 -99 -65 25 -53 110 hvcurveto
            return
          </CharString>
          <CharString index="51">
            122 12 112 135 132 -35 139 -120 -117 -20 -139 -121 -154 40 -104 118 hvcurveto
            return
          </CharString>
          <CharString index="52">
            -15 -8 8 43 hvcurveto
            1332 vlineto
            43 8 12 15 vhcurveto
            59 hlineto
            15 9 -12 -43 hvcurveto
            -544 vlineto
            -7 1 -1 2 vhcurveto
            2 0 2 1 1 3 45 139 85 45 66 0 rrcurveto
            125 62 -88 -340 hvcurveto
            -540 vlineto
            -43 -10 -8 -13 vhcurveto
            -60 hlineto
            -15 -8 8 43 hvcurveto
            570 vlineto
            218 -24 95 -78 -93 -90 -164 -165 vhcurveto
            -554 vlineto
            -43 -8 -8 -15 vhcurveto
            return
          </CharString>
          <CharString index="53">
            -15 -8 6 43 hvcurveto
            72 vlineto
            43 8 6 15 vhcurveto
            76 hlineto
            15 8 -6 -43 hvcurveto
            -72 vlineto
            -43 -8 -6 -15 vhcurveto
            return
          </CharString>
          <CharString index="54">
            -15 -8 10 43 hvcurveto
            900 vlineto
            43 8 10 15 vhcurveto
            60 hlineto
            15 8 -10 -43 hvcurveto
            -900 vlineto
            -43 -8 -10 -15 vhcurveto
            return
          </CharString>
          <CharString index="55">
            -15 -6 13 22 hvcurveto
            40 vlineto
            19 5 12 16 vhcurveto
            39 hlineto
            53 13 38 171 hvcurveto
            942 vlineto
            43 9 10 14 vhcurveto
            59 hlineto
            16 8 -10 -43 hvcurveto
            -950 vlineto
            -277 -52 -30 -106 vhcurveto
            return
          </CharString>
          <CharString index="56">
            -15 -8 6 43 hvcurveto
            72 vlineto
            43 8 6 15 vhcurveto
            73 hlineto
            15 8 -6 -43 hvcurveto
            -72 vlineto
            -43 -8 -6 -15 vhcurveto
            return
          </CharString>
          <CharString index="57">
            -14 -9 22 43 hvcurveto
            1315 vlineto
            43 9 22 14 vhcurveto
            59 hlineto
            15 9 -22 -43 hvcurveto
            -899 vlineto
            -7 1 -4 3 vhcurveto
            3 3 266 470 rlineto
            22 35 17 28 15 0 rrcurveto
            68 hlineto
            6 4 -8 -11 hvcurveto
            0 -12 -4 -15 -10 -17 rrcurveto
            -214 -376 rlineto
            -2 -4 -2 -4 0 -4 0 -5 4 -4 0 -2 rrcurveto
            230 -480 rlineto
            7 -14 3 -15 0 -11 rrcurveto
            -14 -5 -10 -7 vhcurveto
            -70 hlineto
            -13 0 -14 25 -15 36 rrcurveto
            -187 418 rlineto
            -1 4 -2 4 -4 0 -1 0 -2 -1 -3 -4 -21 -32 -65 -117 -2 -1 -3 -7 -2 -10 0 -13 rrcurveto
            -237 vlineto
            -43 -9 -22 -15 vhcurveto
            return
          </CharString>
          <CharString index="58">
            -14 -9 20 43 hvcurveto
            1317 vlineto
            43 9 22 14 vhcurveto
            60 hlineto
            15 8 -22 -43 hvcurveto
            -1317 vlineto
            -43 -8 -20 -15 vhcurveto
            return
          </CharString>
          <CharString index="59">
            -14 -10 14 43 hvcurveto
            880 vlineto
            43 7 26 15 vhcurveto
            15 hlineto
            16 0 8 -8 6 -48 rrcurveto
            12 -153 rlineto
            1 -8 1 -5 4 0 2 0 2 7 1 7 40 169 81 52 73 0 87 0 56 -49 36 -167 1 -4 1 -2 1 0 2 0 1 1 1 5 rrcurveto
            39 160 83 56 71 0 rrcurveto
            118 78 -71 -342 hvcurveto
            -549 vlineto
            -43 -9 -14 -14 vhcurveto
            -59 hlineto
            -15 -9 14 43 hvcurveto
            592 vlineto
            220 -35 65 -68 -94 -73 -163 -160 vhcurveto
            -554 vlineto
            -43 -10 -14 -14 vhcurveto
            -58 hlineto
            -15 -9 14 43 hvcurveto
            588 vlineto
            224 -37 65 -67 -100 -67 -182 -144 vhcurveto
            -551 vlineto
            -43 -10 -14 -14 vhcurveto
            return
          </CharString>
          <CharString index="60">
            -15 -9 8 43 hvcurveto
            890 vlineto
            43 7 22 15 vhcurveto
            14 hlineto
            16 0 8 -4 6 -48 rrcurveto
            12 -137 rlineto
            2 -8 1 -4 4 0 2 0 2 7 1 6 43 169 87 32 75 0 120 0 77 -85 1 -309 rrcurveto
            -574 vlineto
            -43 -9 -8 -14 vhcurveto
            -60 hlineto
            -15 -8 8 43 hvcurveto
            594 vlineto
            212 -39 77 -69 -100 -73 -147 -158 vhcurveto
            -578 vlineto
            -43 -9 -8 -14 vhcurveto
            return
          </CharString>
          <CharString index="61">
            90 73 58 373 386 -77 44 -86 -87 -77 -46 -384 -370 72 -61 92 hvcurveto
            return
          </CharString>
          <CharString index="62">
            -127 -146 64 452 458 140 57 133 132 137 -57 -458 -451 -144 -65 -125 hvcurveto
            return
          </CharString>
          <CharString index="63">
            -15 -8 21 43 hvcurveto
            1286 vlineto
            43 5 18 15 vhcurveto
            11 hlineto
            11 0 12 -14 8 -66 4 -30 10 -83 0 -26 1 -6 3 -5 1 0 2 0 1 2 2 5 42 162 88 69 76 0 rrcurveto
            126 122 -149 -361 -381 -118 -139 -133 hvcurveto
            -72 0 -66 59 -39 119 -1 4 -2 2 -1 0 rrcurveto
            -1 -1 -3 -7 hvcurveto
            -499 vlineto
            -43 -9 -21 -14 vhcurveto
            return
          </CharString>
          <CharString index="64">
            85 77 96 336 276 -72 153 -90 -93 -72 -178 -251 -271 77 -161 88 hvcurveto
            return
          </CharString>
          <CharString index="65">
            -14 -10 15 43 hvcurveto
            871 vlineto
            43 6 34 15 vhcurveto
            16 hlineto
            16 0 6 -16 6 -48 rrcurveto
            13 -141 rlineto
            2 -9 1 -11 4 0 2 0 2 13 2 7 31 117 56 94 61 0 rrcurveto
            16 hlineto
            22 8 -8 -34 hvcurveto
            -36 vlineto
            -34 -7 -6 -16 vhcurveto
            0 0 -29 -1 -3 -1 -71 -7 -53 -202 0 -127 rrcurveto
            -498 vlineto
            -43 -10 -15 -14 vhcurveto
            return
          </CharString>
          <CharString index="66">
            -154 -87 -110 -153 vhcurveto
            -97 0 -71 40 -63 74 -4 5 -2 5 0 6 0 25 32 32 17 0 3 0 2 -1 2 -2 56 -63 47 -36 77 0 99 0 48 86 0 94 rrcurveto
            0 109 -64 52 -84 54 -103 65 -91 67 0 167 0 147 85 105 128 0 75 0 65 -31 53 -54 3 -3 2 -5 0 -5 0 -23 -27 -34 -16 0 rrcurveto
            -2 0 -2 0 -2 2 -43 39 -38 27 -62 0 -83 0 -42 -77 0 -82 0 -100 44 -52 87 -53 109 -66 102 -76 0 -174 rrcurveto
            return
          </CharString>
          <CharString index="67">
            -109 -72 61 247 hvcurveto
            590 vlineto
            16 -4 1 -6 vhcurveto
            -66 hlineto
            -15 -9 3 34 hvcurveto
            19 vlineto
            34 9 4 15 vhcurveto
            66 hlineto
            6 4 7 20 hvcurveto
            16 393 rlineto
            1 42 8 7 14 0 rrcurveto
            43 hlineto
            15 8 -6 -43 hvcurveto
            -393 vlineto
            -20 3 -7 8 vhcurveto
            130 hlineto
            16 8 -4 -34 hvcurveto
            -19 vlineto
            -34 -8 -3 -16 vhcurveto
            -130 hlineto
            -8 -3 -1 -16 hvcurveto
            -588 vlineto
            -196 43 -23 52 vhcurveto
            66 hlineto
            13 15 -3 -18 hvcurveto
            -43 vlineto
            -21 -10 -6 -18 vhcurveto
            return
          </CharString>
          <CharString index="68">
            -120 -83 55 330 hvcurveto
            582 vlineto
            43 9 8 14 vhcurveto
            60 hlineto
            14 9 -8 -43 hvcurveto
            -628 vlineto
            -206 39 -48 69 100 70 163 133 vhcurveto
            586 vlineto
            43 10 8 14 vhcurveto
            58 hlineto
            15 9 -8 -43 hvcurveto
            -890 vlineto
            -43 -7 -22 -15 vhcurveto
            -13 hlineto
            -16 0 -8 4 -6 48 rrcurveto
            -13 139 rlineto
            -1 8 -2 5 -3 0 -3 0 -2 -7 -1 -7 -38 -164 -84 -38 -75 0 rrcurveto
            return
          </CharString>
          <CharString index="69">
            -14 0 -12 23 -7 41 rrcurveto
            -148 876 rlineto
            -3 13 -1 12 0 9 rrcurveto
            21 5 11 10 vhcurveto
            58 hlineto
            16 0 8 -22 7 -44 rrcurveto
            113 -759 rlineto
            3 -7 1 -3 1 0 2 0 1 4 1 6 rrcurveto
            128 760 rlineto
            7 46 8 19 16 0 rrcurveto
            49 hlineto
            14 0 7 -24 7 -41 rrcurveto
            134 -761 rlineto
            1 -5 1 -2 1 0 rrcurveto
            3 1 4 4 hvcurveto
            103 760 rlineto
            6 46 11 19 16 0 rrcurveto
            52 hlineto
            9 5 -10 -18 hvcurveto
            0 -10 -2 -12 -3 -16 rrcurveto
            -135 -876 rlineto
            -7 -44 -15 -20 -14 0 rrcurveto
            -60 hlineto
            -15 0 -15 23 -7 41 rrcurveto
            -122 708 rlineto
            -1 6 -1 1 -1 0 -1 0 -3 -4 -1 -3 rrcurveto
            -118 -708 rlineto
            -7 -43 -15 -21 -15 0 rrcurveto
            return
          </CharString>
          <CharString index="70">
            0 36 15 13 7 -1 10 -3 37 -13 26 0 40 0 23 92 0 83 0 31 -10 40 -9 38 rrcurveto
            -197 830 rlineto
            -1 7 -1 8 0 7 rrcurveto
            23 7 14 9 vhcurveto
            60 hlineto
            16 0 11 -11 8 -42 rrcurveto
            155 -746 rlineto
            2 -6 1 -4 2 0 2 0 1 4 1 7 rrcurveto
            120 742 rlineto
            7 43 9 13 15 0 rrcurveto
            58 hlineto
            10 7 -15 -26 hvcurveto
            0 -7 -2 -8 -1 -7 rrcurveto
            -179 -932 rlineto
            -36 -203 -24 -67 -100 0 -50 0 -49 13 0 47 rrcurveto
            return
          </CharString>
          <CharString index="71">
            -6 -12 4 14 hvcurveto
            52 vlineto
            0 23 7 14 10 31 rrcurveto
            244 772 -248 0 rlineto
            -7 -5 4 20 hvcurveto
            51 vlineto
            14 5 7 7 vhcurveto
            336 hlineto
            7 11 -5 -16 hvcurveto
            -54 vlineto
            0 -23 -4 -22 -5 -15 rrcurveto
            -246 -775 256 0 rlineto
            5 7 -4 -16 hvcurveto
            -56 vlineto
            -16 -7 -4 -5 vhcurveto
            return
          </CharString>
          <CharString index="72">
            -15 -12 23 34 hvcurveto
            26 vlineto
            34 12 23 15 vhcurveto
            49 hlineto
            15 12 -23 -34 hvcurveto
            -26 vlineto
            -34 -12 -23 -15 vhcurveto
            return
          </CharString>
          <CharString index="73">
            -14 -11 23 34 hvcurveto
            26 vlineto
            34 11 23 14 vhcurveto
            48 hlineto
            15 12 -23 -34 hvcurveto
            -26 vlineto
            -34 -12 -23 -15 vhcurveto
            return
          </CharString>
          <CharString index="74">
            366 128 336 315 326 -128 334 -366 -366 -128 -334 -326 -315 128 -336 366 hvcurveto
            return
          </CharString>
          <CharString index="75">
            -407 -176 345 388 387 176 347 407 409 174 -347 -387 -388 -174 -345 -409 hvcurveto
            return
          </CharString>
          <CharString index="76">
            -16 -11 4 26 hvcurveto
            15 vlineto
            28 11 4 16 vhcurveto
            362 hlineto
            17 10 -4 -26 hvcurveto
            -15 vlineto
            -28 -10 -4 -17 vhcurveto
            return
          </CharString>
          <CharString index="77">
            -55 -101 31 131 136 96 28 60 58 96 -28 -136 -130 -101 -32 -53 hvcurveto
            return
          </CharString>
          <CharString index="78">
            -10 -5 5 27 hvcurveto
            0 9 0 12 1 14 rrcurveto
            21 314 rlineto
            3 43 7 12 16 0 rrcurveto
            63 hlineto
            7 3 -12 -16 hvcurveto
            0 -11 -2 -14 -2 -12 rrcurveto
            -62 -332 rlineto
            -3 -17 -3 -22 -14 0 rrcurveto
            return
          </CharString>
          <CharString index="79">
            -62 -56 46 108 24 1 67 20 hvcurveto
            31 hlineto
            11 3 -16 -18 hvcurveto
            0 -19 -3 -23 0 -11 rrcurveto
            -52 19 -43 41 37 21 40 108 76 -39 101 -24 vhcurveto
            -18 hlineto
            0 -7 -1 11 hvcurveto
            47 vlineto
            10 1 7 6 vhcurveto
            37 hlineto
            51 56 -128 -111 -154 -34 -69 -92 hvcurveto
            return
          </CharString>
          <CharString index="80">
            -11 -7 20 34 hvcurveto
            965 vlineto
            0 16 -5 5 -6 -2 rrcurveto
            -74 -19 rlineto
            -11 -3 -7 3 0 23 rrcurveto
            43 vlineto
            0 14 8 5 10 3 rrcurveto
            146 40 rlineto
            19 5 10 1 0 -34 rrcurveto
            -1065 vlineto
            -34 -7 -20 -11 vhcurveto
            return
          </CharString>
          <CharString index="81">
            -13 -22 8 11 hvcurveto
            -3 1 -1 4 0 4 0 4 1 4 1 4 rrcurveto
            61 158 rlineto
            19 49 14 20 20 0 rrcurveto
            19 hlineto
            21 0 14 -20 19 -49 rrcurveto
            61 -158 rlineto
            1 -4 1 -5 0 -4 0 -4 -1 -4 -3 0 0 -11 -22 -8 -13 0 -10 0 -8 7 -6 11 rrcurveto
            -54 110 rlineto
            -3 7 -3 5 -3 0 -3 0 -3 -5 -4 -7 rrcurveto
            -53 -110 rlineto
            -6 -11 -8 -7 -10 0 rrcurveto
            return
          </CharString>
          <CharString index="82">
            -14 0 -6 9 -8 12 -18 28 -13 27 -23 0 -43 0 -70 -73 -72 0 -70 0 -27 53 -16 34 -5 8 -2 9 0 6 0 19 11 15 17 0 rrcurveto
            13 0 10 -10 6 -13 14 -37 20 -15 20 0 50 0 68 73 68 0 50 0 30 -41 26 -48 6 -9 3 -10 0 -8 0 -17 -10 -12 -15 0 rrcurveto
            return
          </CharString>
          <CharString index="83">
            39 56 24 90 98 -60 17 -35 -38 -59 -17 -98 -89 57 -25 40 hvcurveto
            return
          </CharString>
          <CharString index="84">
            -15 -8 10 43 hvcurveto
            900 vlineto
            43 8 10 15 vhcurveto
            57 hlineto
            15 8 -10 -43 hvcurveto
            -900 vlineto
            -43 -8 -10 -15 vhcurveto
            return
          </CharString>
          <CharString index="85">
            -87 -87 55 119 hvcurveto
            68 hlineto
            -66 53 -29 54 54 55 29 66 vhcurveto
            67 hlineto
            -118 -89 -56 -88 vhcurveto
            return
          </CharString>
          <CharString index="86">
            -7 0 -21 1 -6 0 -142 6 -66 75 0 77 0 92 72 76 121 24 rrcurveto
            -28 vlineto
            -59 -24 -34 -51 0 -58 rrcurveto
            -61 38 -55 100 0 20 1 -11 vhcurveto
            -47 vlineto
            -10 -3 -7 -13 vhcurveto
            return
          </CharString>
          <CharString index="87">
            -14 -12 12 43 hvcurveto
            77 vlineto
            43 12 12 14 vhcurveto
            100 hlineto
            15 11 -12 -43 hvcurveto
            -77 vlineto
            -43 -11 -12 -15 vhcurveto
            return
          </CharString>
          <CharString index="88">
            -20 0 -14 21 -19 49 rrcurveto
            -61 158 rlineto
            -1 4 -1 4 0 4 0 4 1 4 3 1 0 11 22 7 13 0 10 0 8 -6 6 -12 rrcurveto
            53 -109 rlineto
            4 -7 3 -5 3 0 3 0 3 5 3 7 rrcurveto
            54 109 rlineto
            6 12 8 6 10 0 13 0 21 -7 0 -11 4 -1 1 -4 0 -5 0 -3 -1 -5 -1 -3 rrcurveto
            -61 -158 rlineto
            -19 -49 -14 -21 -21 0 rrcurveto
            return
          </CharString>
          <CharString index="89">
            -15 -6 13 22 hvcurveto
            40 vlineto
            19 5 12 16 vhcurveto
            39 hlineto
            53 13 38 171 hvcurveto
            942 vlineto
            43 9 10 14 vhcurveto
            56 hlineto
            16 8 -10 -43 hvcurveto
            -950 vlineto
            -277 -49 -30 -106 vhcurveto
            return
          </CharString>
          <CharString index="90">
            -10 -4 5 27 hvcurveto
            0 9 1 12 1 14 rrcurveto
            20 314 rlineto
            3 43 6 12 16 0 rrcurveto
            64 hlineto
            7 2 -12 -16 hvcurveto
            0 -11 -1 -14 -3 -12 rrcurveto
            -69 -332 rlineto
            -5 -23 -1 -16 -14 0 rrcurveto
            return
          </CharString>
          <CharString index="91">
            -10 -4 5 27 hvcurveto
            0 9 0 12 1 14 rrcurveto
            21 314 rlineto
            3 43 7 12 16 0 rrcurveto
            63 hlineto
            7 3 -12 -16 hvcurveto
            0 -11 -2 -14 -2 -12 rrcurveto
            -71 -332 rlineto
            -4 -23 -2 -16 -12 0 rrcurveto
            return
          </CharString>
          <CharString index="92">
            -15 0 -2 17 -8 22 rrcurveto
            -71 268 rlineto
            -3 12 -2 11 0 9 rrcurveto
            21 9 12 10 vhcurveto
            47 hlineto
            17 0 14 -12 3 -43 rrcurveto
            21 -250 rlineto
            1 -14 2 -17 0 -13 rrcurveto
            -15 -3 -8 -7 vhcurveto
            return
          </CharString>
          <CharString index="93">
            -14 0 -3 16 -6 23 rrcurveto
            -70 268 rlineto
            -3 12 -2 11 0 9 rrcurveto
            21 8 12 11 vhcurveto
            47 hlineto
            16 0 15 -12 2 -43 rrcurveto
            21 -250 rlineto
            1 -14 2 -17 0 -13 rrcurveto
            -15 -3 -8 -9 vhcurveto
            return
          </CharString>
          <CharString index="94">
            118 88 56 89 87 87 -55 -119 vhcurveto
            -68 hlineto
            66 -54 29 -53 -55 -54 -30 -65 vhcurveto
            return
          </CharString>
          <CharString index="95">
            -16 -11 30 43 hvcurveto
            160 vlineto
            0 237 60 130 47 23 2 1 1 0 2 0 rrcurveto
            10 9 -15 -31 hvcurveto
            -12 vlineto
            0 -54 -5 5 -17 -26 -25 -42 -13 -76 0 -32 rrcurveto
            -16 1 -11 5 vhcurveto
            33 hlineto
            13 8 -14 -38 hvcurveto
            -200 vlineto
            -43 -7 -19 -14 vhcurveto
            return
          </CharString>
          <CharString index="96">
            -2 -1 -1 0 -2 0 rrcurveto
            -10 -8 15 31 hvcurveto
            12 vlineto
            0 54 5 -5 17 26 25 41 13 77 0 32 rrcurveto
            16 0 11 -6 vhcurveto
            -33 hlineto
            -13 -8 14 38 hvcurveto
            199 vlineto
            43 6 20 15 vhcurveto
            83 hlineto
            15 12 -30 -43 hvcurveto
            -160 vlineto
            0 -237 -60 -130 -48 -23 rrcurveto
            return
          </CharString>
          <CharString index="97">
            -14 0 -2 23 -2 38 rrcurveto
            -28 428 0 10 rlineto
            31 11 28 13 vhcurveto
            62 hlineto
            14 9 -32 -33 hvcurveto
            0 -5 -26 -427 rlineto
            -2 -38 -1 -23 -15 0 rrcurveto
            return
          </CharString>
          <CharString index="98">
            141 0 55 103 34 77 5 11 3 9 0 9 0 21 -23 22 -29 0 -21 0 -4 -16 -3 -7 -42 -107 -52 -23 -79 0 -148 0 -199 167 -170 0 rrcurveto
            -108 0 -46 -60 -54 -104 -5 -9 -1 -9 0 -9 0 -29 16 -17 19 0 16 0 11 12 8 13 43 66 41 48 56 0 139 0 214 -168 183 0 rrcurveto
            return
          </CharString>
        <CharString name=".notdef">
          -286 70 -197 rmoveto
          210 1570 -210 hlineto
          -35 -1672 rmoveto
          1774 279 -1774 vlineto
          endchar
        </CharString>
        <CharString name="A">
          72 hmoveto
          -98 callsubr
          121 427 rmoveto
          -97 callsubr
          endchar
        </CharString>
        <CharString name="AE">
          358 70 hmoveto
          -7 -5 9 22 hvcurveto
          0 5 -2 4 0 4 0 3 1 4 4 5 rrcurveto
          377 1327 rlineto
          11 40 13 15 18 0 rrcurveto
          394 hlineto
          14 9 -1 -30 hvcurveto
          -28 vlineto
          -31 -9 0 -14 vhcurveto
          -222 hlineto
          -8 -2 -8 -20 hvcurveto
          -519 vlineto
          -4 4 -10 2 vhcurveto
          224 hlineto
          15 9 -3 -28 hvcurveto
          -29 vlineto
          -30 -9 -3 -15 vhcurveto
          -224 hlineto
          -1 -5 -17 -4 hvcurveto
          -583 265 vlineto
          14 9 0 -31 hvcurveto
          -28 vlineto
          -30 -9 -1 -14 vhcurveto
          -357 hlineto
          -14 -9 1 34 hvcurveto
          312 -270 vlineto
          -2 0 -3 -7 -1 -4 rrcurveto
          -81 -286 rlineto
          -9 -41 -11 -9 -19 0 rrcurveto
          163 427 rmoveto
          231 hlineto
          1 1 15 3 hvcurveto
          876 vlineto
          2 0 12 -1 vhcurveto
          0 0 -3 -10 -1 -1 rrcurveto
          -237 -877 rlineto
          -1 -5 -1 -3 0 -3 rrcurveto
          -6 3 -3 8 vhcurveto
          endchar
        </CharString>
        <CharString name="Aacute">
          374 1574 rmoveto
          -29 callsubr
          -322 -1574 rmoveto
          -98 callsubr
          121 427 rmoveto
          -97 callsubr
          endchar
        </CharString>
        <CharString name="Abreve">
          383 1574 rmoveto
          -22 callsubr
          -311 -1574 rmoveto
          -98 callsubr
          121 427 rmoveto
          -97 callsubr
          endchar
        </CharString>
        <CharString name="Acircumflex">
          298 1574 rmoveto
          -26 callsubr
          -226 -1574 rmoveto
          -98 callsubr
          121 427 rmoveto
          -97 callsubr
          endchar
        </CharString>
        <CharString name="Adieresis">
          250 1574 rmoveto
          -35 callsubr
          171 hmoveto
          -34 callsubr
          -446 -1574 rmoveto
          -98 callsubr
          121 427 rmoveto
          -97 callsubr
          endchar
        </CharString>
        <CharString name="Agrave">
          374 1574 rmoveto
          -69 callsubr
          -323 -1574 rmoveto
          -98 callsubr
          121 427 rmoveto
          -97 callsubr
          endchar
        </CharString>
        <CharString name="Amacron">
          203 1574 rmoveto
          -31 callsubr
          -493 -1574 rmoveto
          -98 callsubr
          121 427 rmoveto
          -97 callsubr
          endchar
        </CharString>
        <CharString name="Aogonek">
          672 -329 rmoveto
          -21 callsubr
          -600 329 rmoveto
          -98 callsubr
          121 427 rmoveto
          -97 callsubr
          endchar
        </CharString>
        <CharString name="Aring">
          385 1489 rmoveto
          -24 callsubr
          -48 vmoveto
          -30 callsubr
          -313 -1441 rmoveto
          -98 callsubr
          121 427 rmoveto
          -97 callsubr
          endchar
        </CharString>
        <CharString name="Atilde">
          565 1574 rmoveto
          -25 callsubr
          -493 -1574 rmoveto
          -98 callsubr
          121 427 rmoveto
          -97 callsubr
          endchar
        </CharString>
        <CharString name="B">
          227 135 hmoveto
          -96 callsubr
          -197 88 rmoveto
          -95 callsubr
          719 vmoveto
          -94 callsubr
          endchar
        </CharString>
        <CharString name="C">
          42 451 -14 rmoveto
          -93 callsubr
          endchar
        </CharString>
        <CharString name="Cacute">
          42 342 1574 rmoveto
          -29 callsubr
          89 -1588 rmoveto
          -93 callsubr
          endchar
        </CharString>
        <CharString name="Ccaron">
          42 342 1574 rmoveto
          -19 callsubr
          90 -1588 rmoveto
          -93 callsubr
          endchar
        </CharString>
        <CharString name="Ccedilla">
          42 414 -531 rmoveto
          -28 callsubr
          37 517 rmoveto
          -93 callsubr
          endchar
        </CharString>
        <CharString name="Ccircumflex">
          42 265 1574 rmoveto
          -26 callsubr
          186 -1588 rmoveto
          -93 callsubr
          endchar
        </CharString>
        <CharString name="Cdotaccent">
          42 301 1574 rmoveto
          -20 callsubr
          50 -1588 rmoveto
          -93 callsubr
          endchar
        </CharString>
        <CharString name="D">
          264 232 90 rmoveto
          -92 callsubr
          -101 -90 rmoveto
          -91 callsubr
          endchar
        </CharString>
        <CharString name="Dcaron">
          264 450 1574 rmoveto
          -19 callsubr
          -237 -1484 rmoveto
          -92 callsubr
          -101 -90 rmoveto
          -91 callsubr
          endchar
        </CharString>
        <CharString name="Dcroat">
          264 234 90 rmoveto
          189 hlineto
          219 55 145 488 439 -71 186 -200 hvcurveto
          -193 hlineto
          -6 -5 -5 -12 hvcurveto
          -565 196 vlineto
          16 11 -4 -25 hvcurveto
          -15 vlineto
          -27 -11 -3 -16 vhcurveto
          -196 -582 hlineto
          -15 4 -5 8 vhcurveto
          -103 -90 rmoveto
          -15 -8 4 35 hvcurveto
          653 -69 vlineto
          -17 -10 3 26 hvcurveto
          14 vlineto
          27 10 4 17 vhcurveto
          69 641 hlineto
          27 8 4 15 vhcurveto
          303 hlineto
          237 141 -151 -564 -607 -113 -116 -273 hvcurveto
          endchar
        </CharString>
        <CharString name="Delta">
          128 244 rmoveto
          -9 -6 9 22 hvcurveto
          11 vlineto
          0 4 0 4 1 6 rrcurveto
          193 995 rlineto
          7 41 13 12 16 2 rrcurveto
          90 hlineto
          16 -2 12 -12 8 -41 rrcurveto
          184 -995 rlineto
          1 -13 5 -4 0 -9 rrcurveto
          -21 -6 -9 -10 vhcurveto
          -391 95 rmoveto
          269 hlineto
          3 0 5 4 hvcurveto
          0 2 0 3 -1 1 rrcurveto
          -134 854 rlineto
          -1 2 0 2 0 0 rrcurveto
          -2 -1 -3 -1 hvcurveto
          -143 -849 rlineto
          -1 -5 0 -3 0 -1 rrcurveto
          -4 3 -7 8 vhcurveto
          endchar
        </CharString>
        <CharString name="E">
          53 131 hmoveto
          -90 callsubr
          endchar
        </CharString>
        <CharString name="Eacute">
          53 355 1574 rmoveto
          -29 callsubr
          -244 -1574 rmoveto
          -90 callsubr
          endchar
        </CharString>
        <CharString name="Ebreve">
          53 363 1574 rmoveto
          -22 callsubr
          -232 -1574 rmoveto
          -90 callsubr
          endchar
        </CharString>
        <CharString name="Ecaron">
          53 355 1574 rmoveto
          -19 callsubr
          -243 -1574 rmoveto
          -90 callsubr
          endchar
        </CharString>
        <CharString name="Ecircumflex">
          53 278 1574 rmoveto
          -26 callsubr
          -147 -1574 rmoveto
          -90 callsubr
          endchar
        </CharString>
        <CharString name="Edieresis">
          53 231 1574 rmoveto
          -35 callsubr
          171 hmoveto
          -34 callsubr
          -368 -1574 rmoveto
          -90 callsubr
          endchar
        </CharString>
        <CharString name="Edotaccent">
          53 315 1574 rmoveto
          -20 callsubr
          -284 -1574 rmoveto
          -90 callsubr
          endchar
        </CharString>
        <CharString name="Egrave">
          53 355 1574 rmoveto
          -69 callsubr
          -245 -1574 rmoveto
          -90 callsubr
          endchar
        </CharString>
        <CharString name="Emacron">
          53 184 1574 rmoveto
          -31 callsubr
          -415 -1574 rmoveto
          -90 callsubr
          endchar
        </CharString>
        <CharString name="Eogonek">
          53 131 hmoveto
          -90 callsubr
          5 -323 rmoveto
          -21 callsubr
          endchar
        </CharString>
        <CharString name="Eth">
          264 234 90 rmoveto
          189 hlineto
          219 55 145 488 439 -71 186 -200 hvcurveto
          -193 hlineto
          -6 -5 -5 -12 hvcurveto
          -561 173 vlineto
          19 12 -3 -29 hvcurveto
          -27 vlineto
          -3 -22 -11 -3 -17 0 rrcurveto
          -173 -576 hlineto
          -15 4 -5 8 vhcurveto
          -103 -90 rmoveto
          -15 -8 4 35 hvcurveto
          647 -71 vlineto
          -19 -12 4 28 hvcurveto
          19 vlineto
          30 12 3 19 vhcurveto
          71 637 hlineto
          27 8 4 15 vhcurveto
          303 hlineto
          237 141 -151 -564 -607 -113 -116 -273 hvcurveto
          endchar
        </CharString>
        <CharString name="Euro">
          42 451 -14 rmoveto
          -156 0 -169 34 -32 518 rrcurveto
          -41 hlineto
          -15 -6 1 43 hvcurveto
          16 vlineto
          43 6 0 15 vhcurveto
          37 hlineto
          -1 26 0 26 0 28 0 30 1 29 0 28 rrcurveto
          -37 hlineto
          -15 -6 1 43 hvcurveto
          15 vlineto
          43 6 1 15 vhcurveto
          42 hlineto
          34 486 168 56 164 0 54 0 92 -9 7 -32 rrcurveto
          -65 vlineto
          -10 -3 -1 -4 vhcurveto
          -3 0 -57 23 -69 0 -124 0 -117 -53 -27 -395 rrcurveto
          174 hlineto
          15 7 -1 -43 hvcurveto
          -15 vlineto
          -43 -7 -1 -15 vhcurveto
          -179 hlineto
          -1 -28 0 -29 0 -30 0 -28 0 -26 1 -26 rrcurveto
          179 hlineto
          15 7 0 -43 hvcurveto
          -16 vlineto
          -43 -7 -1 -15 vhcurveto
          -175 hlineto
          21 -406 102 -53 128 0 40 0 55 9 33 11 rrcurveto
          5 3 -5 -7 hvcurveto
          -68 vlineto
          -32 -112 -1 -28 vhcurveto
          endchar
        </CharString>
        <CharString name="F">
          -2 131 hmoveto
          -89 callsubr
          endchar
        </CharString>
        <CharString name="G">
          221 749 -15 rmoveto
          -88 callsubr
          endchar
        </CharString>
        <CharString name="Gbreve">
          221 431 1574 rmoveto
          -22 callsubr
          318 -1589 rmoveto
          -88 callsubr
          endchar
        </CharString>
        <CharString name="Gcircumflex">
          221 346 1574 rmoveto
          -26 callsubr
          403 -1589 rmoveto
          -88 callsubr
          endchar
        </CharString>
        <CharString name="Gcommaaccent">
          221 393 -635 rmoveto
          -100 callsubr
          356 620 rmoveto
          -88 callsubr
          endchar
        </CharString>
        <CharString name="Gdotaccent">
          221 383 1574 rmoveto
          -20 callsubr
          266 -1589 rmoveto
          -88 callsubr
          endchar
        </CharString>
        <CharString name="H">
          246 132 hmoveto
          -87 callsubr
          endchar
        </CharString>
        <CharString name="Hbar">
          246 132 hmoveto
          -16 -8 4 43 hvcurveto
          1139 -63 vlineto
          -16 -11 3 26 hvcurveto
          14 vlineto
          27 11 4 16 vhcurveto
          63 131 hlineto
          43 8 4 16 vhcurveto
          64 hlineto
          16 10 -4 -43 hvcurveto
          -131 436 131 vlineto
          43 10 4 17 vhcurveto
          66 hlineto
          14 9 -4 -43 hvcurveto
          -131 62 vlineto
          16 10 -4 -25 hvcurveto
          -15 vlineto
          -27 -10 -3 -16 vhcurveto
          -62 -1139 hlineto
          -43 -9 -4 -14 vhcurveto
          -66 hlineto
          -17 -10 4 43 hvcurveto
          625 vlineto
          4 -7 15 -1 vhcurveto
          -421 hlineto
          -1 -5 -13 -4 hvcurveto
          -627 vlineto
          -43 -10 -4 -16 vhcurveto
          31 787 rmoveto
          421 hlineto
          2 7 16 4 hvcurveto
          379 -436 -382 vlineto
          -4 5 -13 1 vhcurveto
          endchar
        </CharString>
        <CharString name="Hcircumflex">
          246 354 1574 rmoveto
          -26 callsubr
          -222 -1574 rmoveto
          -87 callsubr
          endchar
        </CharString>
        <CharString name="I">
          -303 135 hmoveto
          -86 callsubr
          endchar
        </CharString>
        <CharString name="IJ">
          168 363 -145 rmoveto
          -85 callsubr
          -228 145 rmoveto
          -86 callsubr
          endchar
        </CharString>
        <CharString name="Iacute">
          -303 158 1574 rmoveto
          -29 callsubr
          -43 -1574 rmoveto
          -86 callsubr
          endchar
        </CharString>
        <CharString name="Ibreve">
          -303 167 1574 rmoveto
          -22 callsubr
          -32 -1574 rmoveto
          -86 callsubr
          endchar
        </CharString>
        <CharString name="Icircumflex">
          -303 81 1574 rmoveto
          -26 callsubr
          54 -1574 rmoveto
          -86 callsubr
          endchar
        </CharString>
        <CharString name="Idieresis">
          -303 34 1574 rmoveto
          -35 callsubr
          171 hmoveto
          -34 callsubr
          -167 -1574 rmoveto
          -86 callsubr
          endchar
        </CharString>
        <CharString name="Idotaccent">
          -303 118 1574 rmoveto
          -20 callsubr
          -83 -1574 rmoveto
          -86 callsubr
          endchar
        </CharString>
        <CharString name="Igrave">
          -303 157 1574 rmoveto
          -69 callsubr
          -43 -1574 rmoveto
          -86 callsubr
          endchar
        </CharString>
        <CharString name="Imacron">
          -303 -13 1574 rmoveto
          -31 callsubr
          -214 -1574 rmoveto
          -86 callsubr
          endchar
        </CharString>
        <CharString name="Iogonek">
          -303 253 -323 rmoveto
          -21 callsubr
          -118 323 rmoveto
          -86 callsubr
          endchar
        </CharString>
        <CharString name="Itilde">
          -303 349 1574 rmoveto
          -25 callsubr
          -214 -1574 rmoveto
          -86 callsubr
          endchar
        </CharString>
        <CharString name="J">
          -164 31 -145 rmoveto
          -85 callsubr
          endchar
        </CharString>
        <CharString name="Jcircumflex">
          -164 207 1574 rmoveto
          -26 callsubr
          -176 -1719 rmoveto
          -85 callsubr
          endchar
        </CharString>
        <CharString name="K">
          73 131 hmoveto
          -84 callsubr
          endchar
        </CharString>
        <CharString name="Kcommaaccent">
          73 360 -620 rmoveto
          -100 callsubr
          -229 620 rmoveto
          -84 callsubr
          endchar
        </CharString>
        <CharString name="L">
          -61 131 hmoveto
          -83 callsubr
          endchar
        </CharString>
        <CharString name="Lacute">
          -61 306 1574 rmoveto
          -29 callsubr
          -195 -1574 rmoveto
          -83 callsubr
          endchar
        </CharString>
        <CharString name="Lcaron">
          -61 735 954 rmoveto
          -100 callsubr
          -604 -954 rmoveto
          -83 callsubr
          endchar
        </CharString>
        <CharString name="Lcommaaccent">
          -61 276 -620 rmoveto
          -100 callsubr
          -145 620 rmoveto
          -83 callsubr
          endchar
        </CharString>
        <CharString name="Ldot">
          -61 447 710 rmoveto
          -20 callsubr
          -416 -710 rmoveto
          -83 callsubr
          endchar
        </CharString>
        <CharString name="Lslash">
          -61 500 hmoveto
          -369 hlineto
          -15 -8 4 43 hvcurveto
          0 664 -81 -24 rlineto
          -14 -4 -10 6 0 28 rrcurveto
          36 vlineto
          0 28 11 -1 13 4 rrcurveto
          81 24 0 583 rlineto
          43 8 4 15 vhcurveto
          68 hlineto
          15 8 -4 -43 hvcurveto
          0 -550 168 50 rlineto
          13 4 10 -7 0 -27 rrcurveto
          -37 vlineto
          0 -28 -10 2 -13 -4 rrcurveto
          -168 -50 0 -634 rlineto
          -20 6 0 8 vhcurveto
          264 hlineto
          14 10 0 -29 hvcurveto
          -30 vlineto
          -30 -10 -1 -14 vhcurveto
          endchar
        </CharString>
        <CharString name="M">
          392 124 hmoveto
          -82 callsubr
          endchar
        </CharString>
        <CharString name="N">
          254 132 hmoveto
          -81 callsubr
          endchar
        </CharString>
        <CharString name="Nacute">
          254 435 1574 rmoveto
          -29 callsubr
          -323 -1574 rmoveto
          -81 callsubr
          endchar
        </CharString>
        <CharString name="Ncaron">
          254 435 1574 rmoveto
          -19 callsubr
          -322 -1574 rmoveto
          -81 callsubr
          endchar
        </CharString>
        <CharString name="Ncommaaccent">
          254 405 -620 rmoveto
          -100 callsubr
          -273 620 rmoveto
          -81 callsubr
          endchar
        </CharString>
        <CharString name="Ntilde">
          254 626 1574 rmoveto
          -25 callsubr
          -494 -1574 rmoveto
          -81 callsubr
          endchar
        </CharString>
        <CharString name="O">
          235 434 79 rmoveto
          -80 callsubr
          -93 vmoveto
          -79 callsubr
          endchar
        </CharString>
        <CharString name="OE">
          378 445 hmoveto
          479 hlineto
          14 8 7 30 hvcurveto
          16 vlineto
          31 -8 6 -14 vhcurveto
          -264 hlineto
          -1 -2 15 4 hvcurveto
          567 vlineto
          4 6 17 1 vhcurveto
          233 hlineto
          15 9 6 31 hvcurveto
          17 vlineto
          28 -9 7 -15 vhcurveto
          -234 hlineto
          -1 -5 10 4 hvcurveto
          520 vlineto
          20 2 8 8 vhcurveto
          250 hlineto
          15 8 6 31 hvcurveto
          16 vlineto
          30 -8 7 -15 vhcurveto
          -477 hlineto
          -235 -116 -167 -548 -601 121 -122 235 hvcurveto
          95 89 rmoveto
          -97 1 rlineto
          -165 -74 115 518 hvcurveto
          0 464 70 160 169 1 rrcurveto
          97 hlineto
          1 1 -315 -315 -315 -1 -314 -1 hvcurveto
          endchar
        </CharString>
        <CharString name="Oacute">
          235 425 1574 rmoveto
          -29 callsubr
          -11 -1495 rmoveto
          -80 callsubr
          -93 vmoveto
          -79 callsubr
          endchar
        </CharString>
        <CharString name="Obreve">
          235 433 1574 rmoveto
          -22 callsubr
          1 -1495 rmoveto
          -80 callsubr
          -93 vmoveto
          -79 callsubr
          endchar
        </CharString>
        <CharString name="Ocircumflex">
          235 348 1574 rmoveto
          -26 callsubr
          86 -1495 rmoveto
          -80 callsubr
          -93 vmoveto
          -79 callsubr
          endchar
        </CharString>
        <CharString name="Odieresis">
          235 301 1574 rmoveto
          -35 callsubr
          171 hmoveto
          -34 callsubr
          -135 -1495 rmoveto
          -80 callsubr
          -93 vmoveto
          -79 callsubr
          endchar
        </CharString>
        <CharString name="Ograve">
          235 425 1574 rmoveto
          -69 callsubr
          -12 -1495 rmoveto
          -80 callsubr
          -93 vmoveto
          -79 callsubr
          endchar
        </CharString>
        <CharString name="Ohungarumlaut">
          235 361 1574 rmoveto
          -17 callsubr
          121 hmoveto
          -16 callsubr
          -75 -1495 rmoveto
          -80 callsubr
          -93 vmoveto
          -79 callsubr
          endchar
        </CharString>
        <CharString name="Omacron">
          235 254 1574 rmoveto
          -31 callsubr
          -182 -1495 rmoveto
          -80 callsubr
          -93 vmoveto
          -79 callsubr
          endchar
        </CharString>
        <CharString name="Oslash">
          235 293 -205 rmoveto
          -4 0 -5 21 3 12 rrcurveto
          25 174 rlineto
          -161 51 -62 184 0 488 0 558 95 170 250 0 30 0 27 -2 25 -5 rrcurveto
          23 168 rlineto
          2 20 7 13 7 0 rrcurveto
          48 hlineto
          5 0 3 -18 -2 -15 rrcurveto
          -27 -188 rlineto
          143 -66 56 -197 0 -438 0 -605 -91 -134 -256 0 -19 0 -19 1 -17 2 rrcurveto
          -22 -161 rlineto
          -3 -20 -6 -13 -6 0 rrcurveto
          -14 324 rmoveto
          174 1232 rlineto
          -20 5 -23 4 -25 0 -173 0 -57 -160 0 -475 0 -388 36 -160 88 -58 rrcurveto
          106 -39 rmoveto
          171 61 105 540 hvcurveto
          0 327 -28 170 -74 75 rrcurveto
          -171 -1214 rlineto
          13 -2 13 -1 15 0 rrcurveto
          endchar
        </CharString>
        <CharString name="Otilde">
          235 616 1574 rmoveto
          -25 callsubr
          -182 -1495 rmoveto
          -80 callsubr
          -93 vmoveto
          -79 callsubr
          endchar
        </CharString>
        <CharString name="P">
          161 131 hmoveto
          -78 callsubr
          30 631 rmoveto
          -77 callsubr
          endchar
        </CharString>
        <CharString name="Q">
          299 590 -318 rmoveto
          -82 308 rlineto
          -9 -2 -29 -2 -18 0 -243 5 -120 115 0 617 rrcurveto
          590 127 139 250 254 125 -131 -598 vhcurveto
          0 -507 -76 -164 -162 -50 4 -21 72 -271 0 -8 8 -31 6 -10 -26 -8 -13 -4 -25 -8 -12 0 -16 0 -8 13 -7 28 rrcurveto
          -124 397 rmoveto
          171 93 72 572 524 -89 111 -175 -173 -89 -128 -507 -561 94 -83 168 hvcurveto
          endchar
        </CharString>
        <CharString name="R">
          238 131 hmoveto
          -76 callsubr
          31 793 rmoveto
          -75 callsubr
          endchar
        </CharString>
        <CharString name="Racute">
          238 431 1574 rmoveto
          -29 callsubr
          -320 -1574 rmoveto
          -76 callsubr
          31 793 rmoveto
          -75 callsubr
          endchar
        </CharString>
        <CharString name="Rcaron">
          238 431 1574 rmoveto
          -19 callsubr
          -319 -1574 rmoveto
          -76 callsubr
          31 793 rmoveto
          -75 callsubr
          endchar
        </CharString>
        <CharString name="Rcommaaccent">
          238 401 -620 rmoveto
          -100 callsubr
          -270 620 rmoveto
          -76 callsubr
          31 793 rmoveto
          -75 callsubr
          endchar
        </CharString>
        <CharString name="S">
          107 389 1452 rmoveto
          -107 callsubr
          endchar
        </CharString>
        <CharString name="Sacute">
          107 354 1574 rmoveto
          -29 callsubr
          15 -122 rmoveto
          -107 callsubr
          endchar
        </CharString>
        <CharString name="Scaron">
          107 354 1574 rmoveto
          -19 callsubr
          16 -122 rmoveto
          -107 callsubr
          endchar
        </CharString>
        <CharString name="Scedilla">
          107 367 -541 rmoveto
          -28 callsubr
          22 1993 rmoveto
          -107 callsubr
          endchar
        </CharString>
        <CharString name="Scircumflex">
          107 277 1574 rmoveto
          -26 callsubr
          112 -122 rmoveto
          -107 callsubr
          endchar
        </CharString>
        <CharString name="Scommaaccent">
          107 324 -634 rmoveto
          -100 callsubr
          65 2086 rmoveto
          -107 callsubr
          endchar
        </CharString>
        <CharString name="T">
          -37 270 hmoveto
          -74 callsubr
          endchar
        </CharString>
        <CharString name="Tcaron">
          -37 291 1574 rmoveto
          -19 callsubr
          -40 -1574 rmoveto
          -74 callsubr
          endchar
        </CharString>
        <CharString name="Thorn">
          161 131 hmoveto
          -15 -8 7 38 hvcurveto
          1316 vlineto
          38 8 7 15 vhcurveto
          68 hlineto
          15 8 -6 -39 hvcurveto
          -181 142 vlineto
          187 185 -12 -397 -369 -160 -24 -180 hvcurveto
          -166 hlineto
          -5 -3 -3 -11 hvcurveto
          -319 vlineto
          -37 -8 -8 -15 vhcurveto
          30 469 rmoveto
          159 hlineto
          158 76 25 277 311 -111 8 -151 hvcurveto
          -130 hlineto
          -5 -3 -4 -9 hvcurveto
          -596 vlineto
          -8 2 -4 5 vhcurveto
          endchar
        </CharString>
        <CharString name="U">
          283 467 -14 rmoveto
          -73 callsubr
          endchar
        </CharString>
        <CharString name="Uacute">
          283 448 1574 rmoveto
          -29 callsubr
          -1 -1588 rmoveto
          -73 callsubr
          endchar
        </CharString>
        <CharString name="Ubreve">
          283 457 1574 rmoveto
          -22 callsubr
          10 -1588 rmoveto
          -73 callsubr
          endchar
        </CharString>
        <CharString name="Ucircumflex">
          283 372 1574 rmoveto
          -26 callsubr
          95 -1588 rmoveto
          -73 callsubr
          endchar
        </CharString>
        <CharString name="Udieresis">
          283 325 1574 rmoveto
          -35 callsubr
          171 hmoveto
          -34 callsubr
          -126 -1588 rmoveto
          -73 callsubr
          endchar
        </CharString>
        <CharString name="Ugrave">
          283 448 1574 rmoveto
          -69 callsubr
          -2 -1588 rmoveto
          -73 callsubr
          endchar
        </CharString>
        <CharString name="Uhungarumlaut">
          283 385 1574 rmoveto
          -17 callsubr
          121 hmoveto
          -16 callsubr
          -66 -1588 rmoveto
          -73 callsubr
          endchar
        </CharString>
        <CharString name="Umacron">
          283 278 1574 rmoveto
          -31 callsubr
          -173 -1588 rmoveto
          -73 callsubr
          endchar
        </CharString>
        <CharString name="Uogonek">
          283 549 -336 rmoveto
          -21 callsubr
          -82 322 rmoveto
          -73 callsubr
          endchar
        </CharString>
        <CharString name="Uring">
          283 460 1622 rmoveto
          -24 callsubr
          -48 vmoveto
          -30 callsubr
          7 -1588 rmoveto
          -73 callsubr
          endchar
        </CharString>
        <CharString name="Utilde">
          283 639 1574 rmoveto
          -25 callsubr
          -172 -1588 rmoveto
          -73 callsubr
          endchar
        </CharString>
        <CharString name="V">
          108 345 hmoveto
          -13 2 -14 16 -8 41 rrcurveto
          -252 1312 rlineto
          -2 12 -2 12 0 9 rrcurveto
          21 6 13 9 vhcurveto
          71 hlineto
          14 0 12 -21 8 -42 rrcurveto
          212 -1164 194 1164 rlineto
          7 42 10 21 16 0 rrcurveto
          61 hlineto
          10 5 -12 -21 hvcurveto
          0 -10 -1 -11 -2 -13 rrcurveto
          -236 -1312 rlineto
          -7 -41 -11 -16 -16 -2 rrcurveto
          endchar
        </CharString>
        <CharString name="W">
          517 287 hmoveto
          -72 callsubr
          endchar
        </CharString>
        <CharString name="Wacute">
          517 567 1574 rmoveto
          -29 callsubr
          -300 -1574 rmoveto
          -72 callsubr
          endchar
        </CharString>
        <CharString name="Wcircumflex">
          517 491 1574 rmoveto
          -26 callsubr
          -204 -1574 rmoveto
          -72 callsubr
          endchar
        </CharString>
        <CharString name="Wdieresis">
          517 443 1574 rmoveto
          -35 callsubr
          171 hmoveto
          -34 callsubr
          -424 -1574 rmoveto
          -72 callsubr
          endchar
        </CharString>
        <CharString name="Wgrave">
          517 567 1574 rmoveto
          -69 callsubr
          -301 -1574 rmoveto
          -72 callsubr
          endchar
        </CharString>
        <CharString name="X">
          144 69 hmoveto
          -6 -5 9 13 hvcurveto
          0 10 2 15 7 17 rrcurveto
          263 669 -239 640 rlineto
          -5 19 -5 15 0 10 rrcurveto
          13 5 8 6 vhcurveto
          84 hlineto
          17 0 15 -8 15 -41 rrcurveto
          185 -509 191 509 rlineto
          16 40 16 9 17 0 rrcurveto
          56 hlineto
          11 5 -9 -15 hvcurveto
          0 -7 -1 -11 -5 -12 rrcurveto
          -247 -624 249 -695 rlineto
          5 -15 3 -14 0 -10 rrcurveto
          -16 -6 -10 -10 vhcurveto
          -70 hlineto
          -17 0 -14 7 -15 42 rrcurveto
          -202 567 -223 -568 rlineto
          -16 -40 -12 -8 -17 0 rrcurveto
          endchar
        </CharString>
        <CharString name="Y">
          10 290 hmoveto
          -71 callsubr
          endchar
        </CharString>
        <CharString name="Yacute">
          10 312 1574 rmoveto
          -29 callsubr
          -42 -1574 rmoveto
          -71 callsubr
          endchar
        </CharString>
        <CharString name="Ycircumflex">
          10 236 1574 rmoveto
          -26 callsubr
          54 -1574 rmoveto
          -71 callsubr
          endchar
        </CharString>
        <CharString name="Ydieresis">
          10 189 1574 rmoveto
          -35 callsubr
          171 hmoveto
          -34 callsubr
          -167 -1574 rmoveto
          -71 callsubr
          endchar
        </CharString>
        <CharString name="Ygrave">
          10 312 1574 rmoveto
          -69 callsubr
          -43 -1574 rmoveto
          -71 callsubr
          endchar
        </CharString>
        <CharString name="Z">
          10 104 hmoveto
          -70 callsubr
          endchar
        </CharString>
        <CharString name="Zacute">
          10 325 1574 rmoveto
          -29 callsubr
          -241 -1574 rmoveto
          -70 callsubr
          endchar
        </CharString>
        <CharString name="Zcaron">
          10 325 1574 rmoveto
          -19 callsubr
          -240 -1574 rmoveto
          -70 callsubr
          endchar
        </CharString>
        <CharString name="Zdotaccent">
          10 285 1574 rmoveto
          -20 callsubr
          -281 -1574 rmoveto
          -70 callsubr
          endchar
        </CharString>
        <CharString name="a">
          34 277 -12 rmoveto
          -68 callsubr
          16 82 rmoveto
          -67 callsubr
          endchar
        </CharString>
        <CharString name="aacute">
          34 318 1141 rmoveto
          -29 callsubr
          -61 -1153 rmoveto
          -68 callsubr
          16 82 rmoveto
          -67 callsubr
          endchar
        </CharString>
        <CharString name="abreve">
          34 326 1141 rmoveto
          -22 callsubr
          -49 -1153 rmoveto
          -68 callsubr
          16 82 rmoveto
          -67 callsubr
          endchar
        </CharString>
        <CharString name="acircumflex">
          34 241 1141 rmoveto
          -26 callsubr
          36 -1153 rmoveto
          -68 callsubr
          16 82 rmoveto
          -67 callsubr
          endchar
        </CharString>
        <CharString name="acute">
          -39 376 1167 rmoveto
          -29 callsubr
          endchar
        </CharString>
        <CharString name="adieresis">
          34 193 1141 rmoveto
          -35 callsubr
          171 hmoveto
          -34 callsubr
          -184 -1153 rmoveto
          -68 callsubr
          16 82 rmoveto
          -67 callsubr
          endchar
        </CharString>
        <CharString name="ae">
          417 276 -12 rmoveto
          -142 -61 98 152 hvcurveto
          0 358 331 -7 55 21 rrcurveto
          44 vlineto
          147 -16 133 -116 vhcurveto
          -107 0 -29 -104 -13 -54 -7 -26 -10 -6 -13 4 -16 3 -35 13 -3 8 -4 9 2 18 5 21 18 74 61 124 149 0 103 0 73 -58 24 -132 rrcurveto
          30 137 84 54 75 0 154 0 61 -143 11 -286 rrcurveto
          -4 -5 -105 -34 vhcurveto
          -329 hlineto
          -3 -3 -6 -9 hvcurveto
          1 -173 23 -220 139 0 121 0 3 134 7 78 1 9 3 10 4 0 rrcurveto
          48 hlineto
          8 5 -3 -10 hvcurveto
          1 -2 0 -31 0 -6 0 -137 -53 -127 -154 0 -101 0 -78 84 -36 156 -34 -150 -69 -90 -129 0 rrcurveto
          15 81 rmoveto
          127 43 183 221 14 0 49 -7 hvcurveto
          -1 0 -55 -8 -3 -1 -169 -40 -60 -112 0 -131 1 -109 32 -66 92 0 rrcurveto
          279 480 rmoveto
          283 hlineto
          1 0 7 2 hvcurveto
          -8 235 -26 141 -108 0 -74 0 -61 -89 -10 -237 rrcurveto
          -6 0 -53 3 vhcurveto
          endchar
        </CharString>
        <CharString name="agrave">
          34 317 1141 rmoveto
          -69 callsubr
          -61 -1153 rmoveto
          -68 callsubr
          16 82 rmoveto
          -67 callsubr
          endchar
        </CharString>
        <CharString name="amacron">
          34 146 1141 rmoveto
          -31 callsubr
          -231 -1153 rmoveto
          -68 callsubr
          16 82 rmoveto
          -67 callsubr
          endchar
        </CharString>
        <CharString name="ampersand">
          439 465 -14 rmoveto
          -184 -153 101 331 hvcurveto
          0 185 103 128 84 25 -81 21 -108 91 0 218 0 273 128 100 148 0 84 0 31 -14 19 -8 16 -7 12 -11 -2 -19 rrcurveto
          -2 -39 rlineto
          0 -21 -12 -6 -15 7 -10 3 -31 17 -61 0 rrcurveto
          -91 -99 -55 -218 -162 67 -112 121 hvcurveto
          253 hlineto
          8 7 10 20 hvcurveto
          2 510 rlineto
          1 43 12 11 18 0 rrcurveto
          54 hlineto
          17 10 -11 -43 hvcurveto
          -510 vlineto
          -20 6 -10 8 vhcurveto
          149 hlineto
          18 13 -6 -33 hvcurveto
          -21 vlineto
          -35 -13 -8 -18 vhcurveto
          -149 hlineto
          -8 -6 -9 -20 hvcurveto
          -353 vlineto
          -198 57 -47 54 vhcurveto
          33 0 23 11 26 19 13 10 14 -6 5 -23 rrcurveto
          3 -27 rlineto
          1 -3 0 -4 0 -3 0 -14 -6 -12 -13 -9 -22 -15 -43 -23 -52 0 -79 0 -72 47 -18 97 -23 -43 -69 -100 -178 0 rrcurveto
          9 94 rmoveto
          203 0 20 151 4 20 -2 36 -2 396 0 0 0 20 -7 8 -8 0 rrcurveto
          -79 0 -164 0 rlineto
          -92 -1 -104 -85 0 -218 0 -274 150 -53 81 0 rrcurveto
          endchar
        </CharString>
        <CharString name="aogonek">
          34 586 -329 rmoveto
          -21 callsubr
          -309 317 rmoveto
          -68 callsubr
          16 82 rmoveto
          -67 callsubr
          endchar
        </CharString>
        <CharString name="approxequal">
          710 926 276 rmoveto
          -9 callsubr
          340 vmoveto
          -9 callsubr
          endchar
        </CharString>
        <CharString name="aring">
          34 328 1189 rmoveto
          -24 callsubr
          -48 vmoveto
          -30 callsubr
          -51 -1153 rmoveto
          -68 callsubr
          16 82 rmoveto
          -67 callsubr
          endchar
        </CharString>
        <CharString name="asciicircum">
          395 127 247 rmoveto
          -21 -7 12 17 hvcurveto
          0 11 3 14 5 13 rrcurveto
          311 872 rlineto
          17 42 15 25 47 0 rrcurveto
          33 hlineto
          47 0 12 -25 18 -43 rrcurveto
          317 -870 rlineto
          4 -12 4 -13 0 -12 rrcurveto
          -17 -8 -14 -21 vhcurveto
          -33 hlineto
          -26 0 -13 14 -19 55 rrcurveto
          -278 779 rlineto
          -9 25 -3 6 -9 0 -9 0 -3 -6 -9 -25 rrcurveto
          -270 -779 rlineto
          -18 -55 -9 -14 -36 0 rrcurveto
          endchar
        </CharString>
        <CharString name="asciitilde">
          710 418 276 rmoveto
          -141 0 -55 103 -34 77 -5 11 -3 9 0 9 0 21 23 22 29 0 21 0 4 -16 3 -7 42 -107 52 -23 79 0 rrcurveto
          5 hlineto
          143 0 201 167 168 0 108 0 46 -60 54 -104 5 -9 1 -9 0 -9 0 -28 -17 -17 -17 -1 -17 -1 -11 12 -8 14 -43 66 -41 48 -56 0 rrcurveto
          -139 0 -214 -168 -183 0 rrcurveto
          endchar
        </CharString>
        <CharString name="asterisk">
          74 247 422 rmoveto
          -26 -37 14 24 hvcurveto
          0 53 112 147 25 38 rrcurveto
          -186 55 rlineto
          -21 6 -15 25 0 29 0 33 16 32 26 0 30 0 131 -113 34 -22 -10 86 -17 82 0 86 rrcurveto
          34 22 15 24 24 21 -11 -34 -2 -21 -256 0 vhcurveto
          158 100 rlineto
          6 3 7 2 5 0 27 0 22 -30 0 -28 0 -20 -12 -20 -28 -7 rrcurveto
          -176 -45 rlineto
          0 0 136 -150 25 -31 6 -7 3 -8 0 -8 0 -24 -27 -23 -25 0 -13 0 -12 6 -9 14 rrcurveto
          -119 200 -84 -236 rlineto
          -2 -6 -9 -3 -11 0 rrcurveto
          endchar
        </CharString>
        <CharString name="at">
          623 648 -121 rmoveto
          -443 -134 374 429 411 123 391 433 hvcurveto
          476 0 72 -368 1 -424 0 -327 -73 -127 -110 0 -99 0 -25 77 -10 129 -2 20 -3 17 -5 0 -6 0 -3 -24 -2 -8 -41 -145 -82 -74 -117 0 rrcurveto
          -145 -120 124 306 301 123 126 145 hvcurveto
          110 0 86 -80 31 -143 1 -8 6 -12 2 0 3 0 1 5 1 8 rrcurveto
          12 137 rlineto
          5 34 7 13 19 0 rrcurveto
          6 hlineto
          15 7 -20 -30 hvcurveto
          -487 vlineto
          -169 31 -25 50 53 37 76 306 399 -69 306 -385 -364 -101 -368 -351 -357 92 -364 399 vhcurveto
          89 0 104 68 66 0 6 0 19 -48 0 -16 0 -3 -1 -1 -1 -1 -65 -36 -115 -41 -110 0 rrcurveto
          -37 430 rmoveto
          108 87 118 225 226 -83 123 -109 -110 -77 -98 -246 -249 74 -99 110 hvcurveto
          endchar
        </CharString>
        <CharString name="atilde">
          34 509 1141 rmoveto
          -25 callsubr
          -232 -1153 rmoveto
          -68 callsubr
          16 82 rmoveto
          -67 callsubr
          endchar
        </CharString>
        <CharString name="b">
          77 389 -12 rmoveto
          -66 callsubr
          -19 85 rmoveto
          -65 callsubr
          endchar
        </CharString>
        <CharString name="backslash">
          -107 354 -205 rmoveto
          -6 0 -8 14 -3 21 rrcurveto
          -233 1782 rlineto
          0 4 -1 4 0 3 rrcurveto
          13 3 11 5 vhcurveto
          82 hlineto
          7 0 6 -14 3 -21 rrcurveto
          234 -1782 rlineto
          0 -3 1 -3 0 -3 rrcurveto
          -14 -4 -12 -4 vhcurveto
          endchar
        </CharString>
        <CharString name="bar">
          -341 135 -150 rmoveto
          -16 -12 18 43 hvcurveto
          1583 vlineto
          43 12 18 16 vhcurveto
          24 hlineto
          15 12 -18 -43 hvcurveto
          -1583 vlineto
          -43 -12 -18 -15 vhcurveto
          endchar
        </CharString>
        <CharString name="braceleft">
          -128 392 1543 rmoveto
          14 12 -12 -27 hvcurveto
          -22 vlineto
          -28 -11 -8 -40 -52 -1 -13 -279 vhcurveto
          -215 vlineto
          0 -132 -10 -56 -57 -12 -3 -1 0 -6 3 -1 56 -14 10 -53 0 -130 rrcurveto
          -215 vlineto
          -282 1 -16 53 40 11 -9 -28 vhcurveto
          -21 vlineto
          -28 -12 -12 -14 vhcurveto
          -55 hlineto
          -96 0 -29 37 -1 332 rrcurveto
          199 vlineto
          -1 151 -8 26 -44 1 rrcurveto
          -41 -17 2 53 hvcurveto
          20 vlineto
          47 19 2 39 vhcurveto
          45 0 7 32 1 149 rrcurveto
          206 vlineto
          1 332 30 31 95 0 rrcurveto
          endchar
        </CharString>
        <CharString name="braceright">
          -128 127 -77 rmoveto
          -15 -12 12 28 hvcurveto
          21 vlineto
          28 12 9 40 51 2 12 279 vhcurveto
          216 vlineto
          0 132 10 55 56 13 3 0 1 7 -4 0 -55 14 -10 54 0 129 rrcurveto
          215 vlineto
          282 -2 17 -52 -40 -12 8 28 vhcurveto
          22 vlineto
          27 12 12 15 vhcurveto
          55 hlineto
          96 0 29 -37 1 -332 rrcurveto
          -199 vlineto
          -151 8 -26 44 41 17 -2 -53 vhcurveto
          -21 vlineto
          0 -47 -18 -1 -40 -1 -44 0 -7 -32 -1 -149 0 -3 -1 -201 0 -2 -1 -332 -29 -31 -95 0 rrcurveto
          endchar
        </CharString>
        <CharString name="bracketleft">
          -156 134 -78 rmoveto
          -16 -11 24 43 hvcurveto
          1441 vlineto
          43 11 28 16 vhcurveto
          231 hlineto
          14 9 -12 -43 hvcurveto
          -39 vlineto
          -43 -9 -12 -14 vhcurveto
          -133 hlineto
          -7 -3 -9 -20 hvcurveto
          -1232 vlineto
          -20 3 -9 7 vhcurveto
          133 hlineto
          14 9 -14 -43 hvcurveto
          -32 vlineto
          -43 -9 -8 -14 vhcurveto
          endchar
        </CharString>
        <CharString name="bracketright">
          -155 117 -84 rmoveto
          -16 -8 12 43 hvcurveto
          79 vlineto
          43 8 12 15 vhcurveto
          132 hlineto
          7 3 9 20 hvcurveto
          1157 vlineto
          20 -3 9 -7 vhcurveto
          -131 hlineto
          -16 -8 14 43 hvcurveto
          67 vlineto
          43 8 14 16 vhcurveto
          230 hlineto
          15 11 -30 -43 hvcurveto
          -1441 vlineto
          -43 -11 -28 -15 vhcurveto
          endchar
        </CharString>
        <CharString name="breve">
          642 601 1293 rmoveto
          -22 callsubr
          endchar
        </CharString>
        <CharString name="brokenbar">
          -207 195 -90 rmoveto
          -14 -9 8 43 hvcurveto
          589 vlineto
          43 9 8 14 vhcurveto
          37 hlineto
          15 9 -8 -43 hvcurveto
          -589 vlineto
          -43 -9 -8 -15 vhcurveto
          -37 921 rmoveto
          -14 -9 8 43 hvcurveto
          592 vlineto
          43 9 8 14 vhcurveto
          37 hlineto
          15 9 -8 -43 hvcurveto
          -592 vlineto
          -43 -9 -8 -15 vhcurveto
          endchar
        </CharString>
        <CharString name="bullet">
          387 511 704 rmoveto
          -240 -90 177 152 162 90 172 240 239 89 -172 -162 -152 -89 -177 -239 hvcurveto
          endchar
        </CharString>
        <CharString name="c">
          -107 350 -12 rmoveto
          -64 callsubr
          endchar
        </CharString>
        <CharString name="cacute">
          -107 268 1141 rmoveto
          -29 callsubr
          62 -1153 rmoveto
          -64 callsubr
          endchar
        </CharString>
        <CharString name="caron">
          -337 139 1235 rmoveto
          -19 callsubr
          endchar
        </CharString>
        <CharString name="ccaron">
          -107 268 1141 rmoveto
          -19 callsubr
          63 -1153 rmoveto
          -64 callsubr
          endchar
        </CharString>
        <CharString name="ccedilla">
          -107 260 -606 rmoveto
          -28 callsubr
          90 594 rmoveto
          -64 callsubr
          endchar
        </CharString>
        <CharString name="ccircumflex">
          -107 191 1141 rmoveto
          -26 callsubr
          159 -1153 rmoveto
          -64 callsubr
          endchar
        </CharString>
        <CharString name="cdotaccent">
          -107 227 1141 rmoveto
          -20 callsubr
          23 -1153 rmoveto
          -64 callsubr
          endchar
        </CharString>
        <CharString name="cedilla">
          -296 190 -606 rmoveto
          -28 callsubr
          endchar
        </CharString>
        <CharString name="cent">
          -107 473 986 rmoveto
          -60 vlineto
          -3 -6 -9 -2 vhcurveto
          -27 7 -27 8 -25 2 rrcurveto
          -855 vlineto
          26 2 27 7 26 9 rrcurveto
          1 9 -11 -2 hvcurveto
          -58 vlineto
          0 -2 -8 -10 -2 -1 -22 -11 -29 -5 -28 -3 rrcurveto
          -135 vlineto
          -34 -5 -16 -15 vhcurveto
          -14 hlineto
          -15 -5 16 34 hvcurveto
          132 vlineto
          -119 6 -133 71 0 442 0 440 133 67 119 4 rrcurveto
          170 vlineto
          32 5 15 15 vhcurveto
          14 hlineto
          15 5 -15 -32 hvcurveto
          -172 vlineto
          17 -2 70 -6 0 -22 rrcurveto
          -141 -908 rmoveto
          851 vlineto
          -71 -12 -73 -64 0 -346 0 -336 66 -78 78 -15 rrcurveto
          endchar
        </CharString>
        <CharString name="circumflex">
          -337 62 1235 rmoveto
          -26 callsubr
          endchar
        </CharString>
        <CharString name="colon">
          -329 124 hmoveto
          -14 -12 30 43 hvcurveto
          162 vlineto
          43 12 30 14 vhcurveto
          60 hlineto
          15 11 -30 -43 hvcurveto
          -162 vlineto
          -43 -11 -30 -15 vhcurveto
          -60 734 rmoveto
          -14 -12 30 43 hvcurveto
          163 vlineto
          43 12 30 14 vhcurveto
          60 hlineto
          15 11 -30 -43 hvcurveto
          -163 vlineto
          -43 -11 -30 -15 vhcurveto
          endchar
        </CharString>
        <CharString name="comma">
          -312 98 -283 rmoveto
          -100 callsubr
          endchar
        </CharString>
        <CharString name="copyright">
          713 694 338 rmoveto
          -167 -138 124 266 277 156 107 143 hvcurveto
          84 0 62 -28 43 -39 5 -4 1 -8 0 -9 0 -21 -14 -27 -14 0 -1 0 -2 1 -2 1 -41 29 -51 27 -56 0 rrcurveto
          -133 -94 -106 -201 -215 98 -95 126 hvcurveto
          63 0 31 20 47 24 3 1 2 1 1 0 17 0 15 -25 0 -23 0 -12 -4 -10 -9 -5 -62 -35 -31 -15 -78 0 rrcurveto
          -18 -274 rmoveto
          -33 callsubr
          -2 -78 rmoveto
          -32 callsubr
          endchar
        </CharString>
        <CharString name="currency">
          387 511 628 rmoveto
          -109 0 -67 27 -69 46 rrcurveto
          -24 -26 rlineto
          -17 -17 -15 -15 -15 0 -6 0 -8 3 -6 8 rrcurveto
          -26 25 rlineto
          -8 9 -3 7 0 8 0 15 13 14 16 16 rrcurveto
          21 21 rlineto
          -63 71 -33 95 0 102 0 104 33 95 65 74 rrcurveto
          -23 21 rlineto
          -17 17 -14 15 0 15 0 6 3 7 7 7 rrcurveto
          27 25 rlineto
          7 9 9 3 7 0 15 0 14 -14 17 -16 rrcurveto
          27 -27 rlineto
          69 44 66 27 107 0 107 0 67 -27 69 -44 rrcurveto
          26 26 rlineto
          17 17 14 14 16 0 7 0 7 -3 8 -9 rrcurveto
          27 -25 rlineto
          6 -8 3 -6 0 -6 0 -15 -14 -15 -17 -17 rrcurveto
          -22 -21 rlineto
          64 -74 34 -95 0 -104 0 -102 -33 -94 -63 -72 rrcurveto
          20 -20 rlineto
          17 -17 14 -14 0 -15 0 -8 -3 -7 -8 -8 rrcurveto
          -27 -26 rlineto
          -6 -7 -7 -4 -7 0 -15 0 -15 15 -16 17 rrcurveto
          -25 26 rlineto
          -70 -46 -67 -27 -108 0 rrcurveto
          76 vmoveto
          239 89 177 152 162 -89 172 -239 -240 -90 -172 -162 -152 90 -177 240 hvcurveto
          endchar
        </CharString>
        <CharString name="d">
          81 539 224 rmoveto
          -63 callsubr
          -27 282 rmoveto
          -62 callsubr
          endchar
        </CharString>
        <CharString name="dagger">
          37 316 hmoveto
          -14 -9 20 43 hvcurveto
          897 -251 vlineto
          -43 -13 9 14 hvcurveto
          56 vlineto
          15 13 10 43 vhcurveto
          251 316 hlineto
          43 9 22 14 vhcurveto
          56 hlineto
          15 9 -22 -43 hvcurveto
          -316 234 vlineto
          43 13 -10 -15 hvcurveto
          -56 vlineto
          -14 -13 -9 -43 vhcurveto
          -234 -897 hlineto
          -43 -9 -20 -15 vhcurveto
          endchar
        </CharString>
        <CharString name="daggerdbl">
          37 316 hmoveto
          -14 -9 20 43 hvcurveto
          351 -251 vlineto
          -43 -13 9 14 hvcurveto
          56 vlineto
          15 13 10 43 vhcurveto
          251 453 -251 hlineto
          -43 -13 9 14 hvcurveto
          56 vlineto
          15 13 10 43 vhcurveto
          251 305 hlineto
          43 9 22 14 vhcurveto
          56 hlineto
          15 9 -22 -43 hvcurveto
          -305 234 vlineto
          43 13 -10 -15 hvcurveto
          -56 vlineto
          -14 -13 -9 -43 vhcurveto
          -234 -453 234 hlineto
          43 13 -10 -15 hvcurveto
          -56 vlineto
          -14 -13 -9 -43 vhcurveto
          -234 -351 hlineto
          -43 -9 -20 -15 vhcurveto
          endchar
        </CharString>
        <CharString name="dcaron">
          83 539 224 rmoveto
          -63 callsubr
          -27 282 rmoveto
          -62 callsubr
          319 431 rmoveto
          -100 callsubr
          endchar
        </CharString>
        <CharString name="dcroat">
          83 328 -12 rmoveto
          -116 -134 63 453 444 118 71 131 hvcurveto
          74 0 64 -57 41 -120 1 -3 3 -5 1 -4 rrcurveto
          1 0 20 2 hvcurveto
          334 -203 vlineto
          -16 -11 3 26 hvcurveto
          14 vlineto
          27 11 4 16 vhcurveto
          203 110 hlineto
          43 9 22 16 vhcurveto
          59 hlineto
          14 10 -22 -43 hvcurveto
          -110 68 vlineto
          16 11 -4 -25 hvcurveto
          -15 vlineto
          -27 -11 -3 -16 vhcurveto
          -68 -1119 hlineto
          -43 -5 -24 -15 vhcurveto
          0 0 -18 3 -2 4 -8 8 -7 21 -4 26 -6 36 -9 75 -3 28 -1 12 -2 8 -1 3 -42 -169 -67 -67 -102 0 rrcurveto
          184 518 rmoveto
          -62 callsubr
          endchar
        </CharString>
        <CharString name="degree">
          12 324 1160 rmoveto
          39 57 24 90 98 -61 17 -35 -38 -58 -17 -98 -89 56 -25 40 hvcurveto
          -48 vmoveto
          -30 callsubr
          endchar
        </CharString>
        <CharString name="dieresis">
          -362 85 hmoveto
          -35 callsubr
          171 hmoveto
          -34 callsubr
          endchar
        </CharString>
        <CharString name="divide">
          -325 122 149.599609375 rmoveto
          -54 callsubr
          -76 548 rmoveto
          -54 callsubr
          295 -224.599609375 rmoveto
          -15 -10 -8 -43 vhcurveto
          -557 hlineto
          -43 -10 8 15 hvcurveto
          60 vlineto
          15 10 8 43 vhcurveto
          557 hlineto
          43 10 -8 -15 hvcurveto
          endchar
        </CharString>
        <CharString name="dollar">
          107 407.400390625 -200 rmoveto
          -10.240234375 -7.6796875 19.4404296875 46.439453125 hvcurveto
          1709.63964844 vlineto
          46.4404296875 7.6796875 19.4404296875 10.240234375 vhcurveto
          15.359375 hlineto
          9.6005859375 7.6796875 -19.4404296875 -46.4404296875 hvcurveto
          -1709.63964844 vlineto
          -46.439453125 -7.6796875 -19.4404296875 -9.6005859375 vhcurveto
          -33.759765625 1652 rmoveto
          -107 callsubr
          endchar
        </CharString>
        <CharString name="dotaccent">
          -283 -3 98 rmoveto
          -20 callsubr
          endchar
        </CharString>
        <CharString name="dotlessi">
          -329 130 hmoveto
          -23 callsubr
          endchar
        </CharString>
        <CharString name="e">
          27 361 -12 rmoveto
          -61 callsubr
          -169 561 rmoveto
          -60 callsubr
          endchar
        </CharString>
        <CharString name="eacute">
          27 327 1141 rmoveto
          -29 callsubr
          14 -1153 rmoveto
          -61 callsubr
          -169 561 rmoveto
          -60 callsubr
          endchar
        </CharString>
        <CharString name="ebreve">
          27 335 1141 rmoveto
          -22 callsubr
          26 -1153 rmoveto
          -61 callsubr
          -169 561 rmoveto
          -60 callsubr
          endchar
        </CharString>
        <CharString name="ecaron">
          27 327 1141 rmoveto
          -19 callsubr
          15 -1153 rmoveto
          -61 callsubr
          -169 561 rmoveto
          -60 callsubr
          endchar
        </CharString>
        <CharString name="ecircumflex">
          27 250 1141 rmoveto
          -26 callsubr
          111 -1153 rmoveto
          -61 callsubr
          -169 561 rmoveto
          -60 callsubr
          endchar
        </CharString>
        <CharString name="edieresis">
          27 203 1141 rmoveto
          -35 callsubr
          171 hmoveto
          -34 callsubr
          -110 -1153 rmoveto
          -61 callsubr
          -169 561 rmoveto
          -60 callsubr
          endchar
        </CharString>
        <CharString name="edotaccent">
          27 287 1141 rmoveto
          -20 callsubr
          -26 -1153 rmoveto
          -61 callsubr
          -169 561 rmoveto
          -60 callsubr
          endchar
        </CharString>
        <CharString name="egrave">
          27 327 1141 rmoveto
          -69 callsubr
          13 -1153 rmoveto
          -61 callsubr
          -169 561 rmoveto
          -60 callsubr
          endchar
        </CharString>
        <CharString name="eight">
          176 515 759 rmoveto
          20 41 48 111 0 124 0 243 -64 83 -112 0 -122 0 -56 -98 -1 -221 0 -184 56 -27 231 -72 rrcurveto
          -109 -772 rmoveto
          -172 -137 95 330 hvcurveto
          0 164 76 150 46 54 -49 41 -45 63 0 178 rrcurveto
          277 113 112 168 169 107 -112 -299 vhcurveto
          0 -145 -59 -123 -40 -54 81 -53 51 -101 0 -165 rrcurveto
          -326 -136 -86 -173 vhcurveto
          2 102 rmoveto
          130 71 75 252 hvcurveto
          0 196 -61 44 -262 82 -43 -67 -42 -159 0 -92 rrcurveto
          -252 76 -79 131 vhcurveto
          endchar
        </CharString>
        <CharString name="ellipsis">
          273 108 hmoveto
          -99 callsubr
          211 hmoveto
          -99 callsubr
          211 hmoveto
          -99 callsubr
          endchar
        </CharString>
        <CharString name="emacron">
          27 156 1141 rmoveto
          -31 callsubr
          -157 -1153 rmoveto
          -61 callsubr
          -169 561 rmoveto
          -60 callsubr
          endchar
        </CharString>
        <CharString name="emdash">
          1413 115 633 rmoveto
          -19 -14 9 28 hvcurveto
          23 vlineto
          30 14 9 19 vhcurveto
          1815 hlineto
          19 13 -9 -29 hvcurveto
          -22 vlineto
          -30 -13 -9 -19 vhcurveto
          endchar
        </CharString>
        <CharString name="endash">
          389 115 633 rmoveto
          -19 -14 9 28 hvcurveto
          23 vlineto
          30 14 9 19 vhcurveto
          791 hlineto
          19 14 -9 -29 hvcurveto
          -22 vlineto
          -30 -14 -9 -19 vhcurveto
          endchar
        </CharString>
        <CharString name="eogonek">
          27 361 -12 rmoveto
          -61 callsubr
          -169 561 rmoveto
          -60 callsubr
          226 -883 rmoveto
          -21 callsubr
          endchar
        </CharString>
        <CharString name="equal">
          -166 69 357 rmoveto
          -15 -6 1 43 hvcurveto
          16 vlineto
          43 6 0 15 vhcurveto
          331 hlineto
          15 6 0 -43 hvcurveto
          -16 vlineto
          -43 -6 -1 -15 vhcurveto
          -331 270 rmoveto
          -15 -6 1 43 hvcurveto
          15 vlineto
          43 6 1 15 vhcurveto
          331 hlineto
          15 6 -1 -43 hvcurveto
          -15 vlineto
          -43 -6 -1 -15 vhcurveto
          endchar
        </CharString>
        <CharString name="eth">
          123 371 -14 rmoveto
          -169 -138 87 354 245 77 189 223 hvcurveto
          59 0 63 -18 59 -60 -20 99 -53 108 -76 104 rrcurveto
          -167 -86 rlineto
          -14 -8 -10 0 -13 22 -16 23 0 16 18 11 rrcurveto
          150 75 rlineto
          -54 55 -60 50 -68 44 -3 2 -5 4 0 8 0 10 20 25 16 0 3 6 5 3 5 0 2 0 2 0 2 -1 74 -44 70 -52 62 -64 rrcurveto
          172 89 rlineto
          13 9 12 1 12 -24 16 -22 4 -17 -21 -12 rrcurveto
          -157 -78 rlineto
          131 -171 79 -208 0 -244 rrcurveto
          -340 -65 -190 -240 vhcurveto
          -3 84 rmoveto
          100 105 46 362 180 -59 117 -157 -157 -33 -163 -173 -282 69 -87 132 hvcurveto
          endchar
        </CharString>
        <CharString name="exclam">
          -313 116 hmoveto
          -14 -12 12 43 hvcurveto
          109 vlineto
          43 12 12 14 vhcurveto
          92 hlineto
          15 11 -12 -43 hvcurveto
          -109 vlineto
          -43 -11 -12 -15 vhcurveto
          -53 388 rmoveto
          -15 0 -1 26 -2 43 rrcurveto
          -39 932 0 9 rlineto
          38 12 22 15 vhcurveto
          71 hlineto
          14 14 -23 -38 hvcurveto
          0 -8 -38 -932 rlineto
          -2 -43 -1 -26 -15 0 rrcurveto
          endchar
        </CharString>
        <CharString name="exclamdown">
          -313 209 1458 rmoveto
          14 12 -12 -43 hvcurveto
          -109 vlineto
          -43 -12 -12 -14 vhcurveto
          -92 hlineto
          -15 -11 12 43 hvcurveto
          109 vlineto
          43 11 12 15 vhcurveto
          53 -388 rmoveto
          15 0 1 -26 2 -43 rrcurveto
          39 -932 0 -9 rlineto
          -38 -12 -22 -15 vhcurveto
          -71 hlineto
          -14 -14 23 38 hvcurveto
          0 8 38 932 rlineto
          2 43 1 26 15 0 rrcurveto
          endchar
        </CharString>
        <CharString name="f">
          -201 155 hmoveto
          -59 callsubr
          endchar
        </CharString>
        <CharString name="five">
          245 421 -14 rmoveto
          -17 1 -213 26 -42 23 -13 7 -7 35 0 6 0 24 5 30 12 0 3 0 3 -1 3 -1 15 -5 119 -49 125 0 rrcurveto
          217 64 167 218 180 -26 192 -194 hvcurveto
          -168 0 -54 -161 -56 0 rrcurveto
          -29 hlineto
          -26 0 2 40 -1 40 rrcurveto
          -18 620 0 12 rlineto
          33 5 15 23 vhcurveto
          568 hlineto
          14 14 -6 -24 hvcurveto
          -1 -36 rlineto
          -1 -30 -4 -13 -9 0 rrcurveto
          -486 hlineto
          -16 -5 -7 -32 hvcurveto
          -496 vlineto
          29 39 80 98 159 0 rrcurveto
          235 71 -186 -280 -384 -154 -95 -226 hvcurveto
          endchar
        </CharString>
        <CharString name="florin">
          -188 -13 -106 rmoveto
          -10 hlineto
          -9 0 -8 1 -1 8 -4 0 -2 15 0 11 1 30 1 24 15 0 rrcurveto
          11 hlineto
          91 0 23 45 20 206 rrcurveto
          50 517 rlineto
          1 20 1 5 -8 0 rrcurveto
          -80 hlineto
          -15 0 -8 3 3 25 rrcurveto
          3 37 rlineto
          3 24 10 5 15 0 rrcurveto
          80 hlineto
          7 0 4 30 2 22 33 323 53 74 151 0 14 0 20 -4 -1 -3 rrcurveto
          6 6 -14 -15 -29 -4 -25 -14 hvcurveto
          -21 hlineto
          -90 0 -23 -47 -21 -203 rrcurveto
          -11 -103 rlineto
          -3 2 -3 1 vhcurveto
          110 hlineto
          14 0 7 -4 -3 -22 rrcurveto
          -4 -40 rlineto
          -2 -24 -9 -4 -14 0 rrcurveto
          -102 hlineto
          -7 0 -3 -5 -1 -20 rrcurveto
          -44 -460 rlineto
          -30 -314 -58 -83 -151 0 rrcurveto
          endchar
        </CharString>
        <CharString name="four">
          226 577 hmoveto
          -23 -12 8 43 hvcurveto
          233 -374 vlineto
          -35 -27 18 36 hvcurveto
          0 4 0 5 1 4 rrcurveto
          135 1020 rlineto
          6 42 6 25 25 0 rrcurveto
          39 hlineto
          22 6 -24 -21 hvcurveto
          0 -8 -1 -8 -1 -6 rrcurveto
          -115 -958 rlineto
          -2 -14 2 -9 19 0 rrcurveto
          294 995 hlineto
          43 12 10 23 vhcurveto
          37 hlineto
          23 12 -10 -43 hvcurveto
          -995 161 vlineto
          39 13 -5 -36 hvcurveto
          -23 vlineto
          -36 -13 -6 -39 vhcurveto
          -161 -233 hlineto
          -43 -12 -8 -23 vhcurveto
          endchar
        </CharString>
        <CharString name="fraction">
          -113 79 -205 rmoveto
          -4 -4 11 12 hvcurveto
          0 3 0 4 1 3 rrcurveto
          301 1786 rlineto
          3 20 8 13 7 0 rrcurveto
          57 hlineto
          5 3 -10 -12 hvcurveto
          0 -4 0 -3 -1 -4 rrcurveto
          -300 -1786 rlineto
          -3 -20 -8 -13 -6 0 rrcurveto
          endchar
        </CharString>
        <CharString name="g">
          -1 320 -292 rmoveto
          -58 callsubr
          -5 74 rmoveto
          -57 callsubr
          18 642 rmoveto
          -56 callsubr
          endchar
        </CharString>
        <CharString name="gbreve">
          -1 339 1436 rmoveto
          -22 callsubr
          -19 -1728 rmoveto
          -58 callsubr
          -5 74 rmoveto
          -57 callsubr
          18 642 rmoveto
          -56 callsubr
          endchar
        </CharString>
        <CharString name="gcircumflex">
          -1 253 1436 rmoveto
          -26 callsubr
          67 -1728 rmoveto
          -58 callsubr
          -5 74 rmoveto
          -57 callsubr
          18 642 rmoveto
          -56 callsubr
          endchar
        </CharString>
        <CharString name="gcommaaccent">
          -1 320 -292 rmoveto
          -58 callsubr
          -5 74 rmoveto
          -57 callsubr
          18 642 rmoveto
          -56 callsubr
          14 1387 rmoveto
          2 1 3 1 2 0 rrcurveto
          9 7 -10 -29 hvcurveto
          -12 vlineto
          0 -32 -6 1 -16 -26 -25 -41 -13 -77 0 -32 rrcurveto
          -16 0 -11 6 vhcurveto
          38 hlineto
          13 8 -14 -38 hvcurveto
          -100 vlineto
          -43 -19 -20 -15 vhcurveto
          -76 hlineto
          -14 -12 30 43 hvcurveto
          61 vlineto
          0 237 60 104 48 23 rrcurveto
          endchar
        </CharString>
        <CharString name="gdotaccent">
          -1 290 1436 rmoveto
          -20 callsubr
          -70 -1728 rmoveto
          -58 callsubr
          -5 74 rmoveto
          -57 callsubr
          18 642 rmoveto
          -56 callsubr
          endchar
        </CharString>
        <CharString name="germandbls">
          177 176 hmoveto
          18 2 18 20 hvcurveto
          1000 vlineto
          180 31 130 156 137 49 -81 -154 -124 -32 -102 -151 -12 -5 -20 -21 -22 6 -23 11 165 73 -132 -229 -233 -86 -119 -225 -11 -5 -21 -21 -23 6 -23 10 245 178 96 348 vhcurveto
          0 166 -36 168 -173 60 -12 4 0 9 11 4 114 43 39 87 0 132 rrcurveto
          221 -121 100 -177 -174 -123 -101 -292 vhcurveto
          -1006 vlineto
          -38 11 -1 16 vhcurveto
          endchar
        </CharString>
        <CharString name="grave">
          -39 447 1167 rmoveto
          -69 callsubr
          endchar
        </CharString>
        <CharString name="greater">
          37 116 115 rmoveto
          -11 -6 15 27 hvcurveto
          28 vlineto
          0 44 12 17 19 26 rrcurveto
          235 358 rlineto
          3 4 2 6 0 5 0 4 -2 6 -4 4 rrcurveto
          -233 326 rlineto
          -20 25 -12 10 0 44 rrcurveto
          39 vlineto
          24 6 15 11 vhcurveto
          4 0 6 -8 7 -8 rrcurveto
          281 -383 rlineto
          27 -36 8 -14 0 -42 rrcurveto
          -19 vlineto
          0 -41 -9 -10 -27 -38 rrcurveto
          -279 -417 rlineto
          -6 -8 -6 -3 -6 0 rrcurveto
          endchar
        </CharString>
        <CharString name="greaterequal">
          37 204 225 rmoveto
          4 0 6 8 7 8 rrcurveto
          281 283 rlineto
          27 36 8 14 0 42 rrcurveto
          18 vlineto
          0 42 -9 10 -27 37 rrcurveto
          -279 318 rlineto
          -6 8 -6 3 -6 0 rrcurveto
          -11 -6 -15 -27 hvcurveto
          -28 vlineto
          0 -44 12 -17 19 -26 rrcurveto
          235 -258 rlineto
          3 -4 2 -6 0 -5 0 -5 -2 -5 -4 -4 rrcurveto
          -233 -226 rlineto
          -20 -25 -12 -10 0 -44 rrcurveto
          -39 vlineto
          -25 6 -14 11 vhcurveto
          310 -148 rmoveto
          16 11 4 26 hvcurveto
          15 vlineto
          28 -11 4 -16 vhcurveto
          -362 hlineto
          -17 -10 -4 -26 hvcurveto
          -15 vlineto
          -28 10 -4 17 vhcurveto
          endchar
        </CharString>
        <CharString name="guillemotleft">
          79 376 235 rmoveto
          -4 0 -59 61 -5 5 -3 3 -223 224 0 9 -18 17 -2 45 0 17 0 10 1 53 4 3 0 19 57 64 19 20 1 0 220 233 0 0 rrcurveto
          2 2 3 0 2 0 3 0 2 -1 2 -4 6 0 3 -38 0 -21 0 -9 -2 -21 -3 -4 0 -34 -38 -32 -15 -16 -1 -1 -192 -206 0 -1 rrcurveto
          -2 -4 0 -5 1 -5 0 -3 35 -36 2 -2 3 -4 193 -194 0 -9 16 -16 3 -30 0 -34 0 -5 -2 -27 -1 0 -1 -19 -3 -5 -4 1 rrcurveto
          271 -1 rmoveto
          -4 0 -60 62 -4 5 -4 3 -222 224 0 9 -18 17 -3 45 0 17 0 10 1 53 4 3 0 19 58 64 19 20 rrcurveto
          221 233 rlineto
          2 2 3 0 2 0 3 0 2 -1 2 -4 6 0 2 -38 0 -21 0 -9 -2 -21 -2 -4 0 -34 -38 -32 -15 -16 -1 -1 -192 -206 0 -1 rrcurveto
          -2 -4 0 -5 0 -5 0 -3 36 -36 2 -2 3 -4 192 -194 0 -9 16 -16 3 -30 0 -34 0 -5 -1 -27 -2 0 rrcurveto
          -18 -2 -6 -4 vhcurveto
          endchar
        </CharString>
        <CharString name="guillemotright">
          79 71 233 rmoveto
          -5 -4 10 25 hvcurveto
          51 vlineto
          0 43 5 7 19 19 rrcurveto
          225 216 rlineto
          3 3 1 6 0 4 0 5 -1 6 -3 3 rrcurveto
          -226 236 rlineto
          -18 21 -5 9 0 43 rrcurveto
          44 vlineto
          27 4 13 7 vhcurveto
          4 0 4 -2 5 -6 rrcurveto
          275 -289 rlineto
          23 -23 3 -19 0 -28 rrcurveto
          -76 vlineto
          0 -27 -3 -22 -22 -20 rrcurveto
          -277 -269 rlineto
          -6 -5 -4 -5 -4 0 rrcurveto
          271 hmoveto
          -5 -5 10 25 hvcurveto
          51 vlineto
          0 43 6 7 18 19 rrcurveto
          225 216 rlineto
          3 3 1 6 0 4 0 5 0 6 -3 3 rrcurveto
          -226 236 rlineto
          -19 21 -5 9 0 43 rrcurveto
          44 vlineto
          27 5 13 7 vhcurveto
          3 0 4 -2 5 -6 rrcurveto
          276 -289 rlineto
          22 -23 3 -19 0 -28 rrcurveto
          -76 vlineto
          0 -27 -3 -22 -22 -20 rrcurveto
          -277 -269 rlineto
          -5 -5 -4 -5 -4 0 rrcurveto
          endchar
        </CharString>
        <CharString name="guilsinglleft">
          -178 376 235 rmoveto
          -4 0 -59 61 -5 5 -3 3 -223 224 0 9 -18 17 -2 45 0 17 0 10 1 53 4 3 0 19 57 64 19 20 1 0 220 233 0 0 rrcurveto
          2 2 3 0 2 0 3 0 2 -1 2 -4 6 0 3 -38 0 -21 0 -9 -2 -21 -3 -4 0 -34 -38 -32 -15 -16 -1 -1 -192 -206 0 -1 rrcurveto
          -2 -4 0 -5 1 -5 0 -3 35 -36 2 -2 3 -4 193 -194 0 -9 16 -16 3 -30 0 -34 0 -5 -2 -27 -1 0 -1 -17 -2 -6 -4 0 rrcurveto
          endchar
        </CharString>
        <CharString name="guilsinglright">
          -178 71 233 rmoveto
          -5 -4 10 25 hvcurveto
          51 vlineto
          0 43 5 7 19 19 rrcurveto
          225 216 rlineto
          3 3 1 6 0 4 0 5 -1 6 -3 3 rrcurveto
          -226 236 rlineto
          -18 21 -5 9 0 43 rrcurveto
          44 vlineto
          27 4 13 7 vhcurveto
          4 0 4 -2 5 -6 rrcurveto
          275 -289 rlineto
          23 -23 3 -19 0 -28 rrcurveto
          -76 vlineto
          0 -27 -3 -22 -22 -20 rrcurveto
          -277 -269 rlineto
          -5 -4 -5 -6 -4 0 rrcurveto
          endchar
        </CharString>
        <CharString name="h">
          49 122 hmoveto
          -55 callsubr
          endchar
        </CharString>
        <CharString name="hbar">
          49 122 hmoveto
          -15 -8 8 43 hvcurveto
          1135 -58 vlineto
          -16 -11 3 26 hvcurveto
          14 vlineto
          27 11 4 16 vhcurveto
          58 123 hlineto
          43 8 12 15 vhcurveto
          61 hlineto
          15 9 -12 -43 hvcurveto
          -123 240 vlineto
          16 11 -4 -25 hvcurveto
          -15 vlineto
          -27 -11 -3 -16 vhcurveto
          -240 -347 hlineto
          -7 1 -1 2 vhcurveto
          2 0 2 1 1 3 45 139 83 45 66 0 rrcurveto
          125 62 -88 -340 hvcurveto
          -540 vlineto
          -43 -10 -8 -13 vhcurveto
          -62 hlineto
          -15 -8 8 43 hvcurveto
          570 vlineto
          218 -24 95 -78 -93 -86 -164 -165 vhcurveto
          -554 vlineto
          -43 -8 -8 -15 vhcurveto
          endchar
        </CharString>
        <CharString name="hcircumflex">
          49 261 1560 rmoveto
          -26 callsubr
          -139 -1560 rmoveto
          -55 callsubr
          endchar
        </CharString>
        <CharString name="hungarumlaut">
          -40 241 1167 rmoveto
          -17 callsubr
          121 hmoveto
          -16 callsubr
          endchar
        </CharString>
        <CharString name="hyphen">
          -225 75 561 rmoveto
          -15 -8 12 43 hvcurveto
          7 vlineto
          43 8 12 15 vhcurveto
          255 hlineto
          15 10 -12 -43 hvcurveto
          -7 vlineto
          -43 -10 -12 -15 vhcurveto
          endchar
        </CharString>
        <CharString name="i">
          -325 122 1174 rmoveto
          -54 callsubr
          -68 -1174 rmoveto
          -53 callsubr
          endchar
        </CharString>
        <CharString name="iacute">
          -329 148 1141 rmoveto
          -29 callsubr
          -38 -1141 rmoveto
          -23 callsubr
          endchar
        </CharString>
        <CharString name="ibreve">
          -329 157 1141 rmoveto
          -22 callsubr
          -27 -1141 rmoveto
          -23 callsubr
          endchar
        </CharString>
        <CharString name="icircumflex">
          -329 72 1141 rmoveto
          -26 callsubr
          58 -1141 rmoveto
          -23 callsubr
          endchar
        </CharString>
        <CharString name="idieresis">
          -329 25 1141 rmoveto
          -35 callsubr
          171 hmoveto
          -34 callsubr
          -163 -1141 rmoveto
          -23 callsubr
          endchar
        </CharString>
        <CharString name="igrave">
          -329 148 1141 rmoveto
          -69 callsubr
          -39 -1141 rmoveto
          -23 callsubr
          endchar
        </CharString>
        <CharString name="ij">
          14 343 -304 rmoveto
          -52 callsubr
          67 1478 rmoveto
          -51 callsubr
          -414 hmoveto
          -54 callsubr
          -68 -1174 rmoveto
          -53 callsubr
          endchar
        </CharString>
        <CharString name="imacron">
          -329 -22 1141 rmoveto
          -31 callsubr
          -210 -1141 rmoveto
          -23 callsubr
          endchar
        </CharString>
        <CharString name="infinity">
          454 948.5 515 rmoveto
          -116 -65 -26 -67 vhcurveto
          -99 0 -54 87 -62 57 66 56 49 86 100 0 rrcurveto
          67 65 -28 -116 hvcurveto
          -406 -46 rmoveto
          30 0 86 -193 184 0 rrcurveto
          103 75 86 154 154 -75 86 -103 hvcurveto
          -184 0 -88 -188 -27 0 -25 0 -88 188 -184 0 rrcurveto
          -103 -75 -86 -154 -154 75 -86 103 hvcurveto
          184 0 82 193 30 0 rrcurveto
          -402 46 rmoveto
          116 65 28 67 vhcurveto
          100 0 49 -86 66 -56 -62 -57 -54 -87 -99 0 rrcurveto
          -67 -65 26 116 hvcurveto
          endchar
        </CharString>
        <CharString name="integral">
          -188 -30 -17 rmoveto
          11 hlineto
          91 0 23 45 20 206 rrcurveto
          68 688 rlineto
          32 323 54 74 151 0 rrcurveto
          14 33 -2 -18 -21 -4 -49 -16 hvcurveto
          -21 hlineto
          -90 0 -24 -47 -20 -203 rrcurveto
          -66 -688 rlineto
          -30 -314 -58 -83 -151 0 rrcurveto
          -17 hlineto
          -11 -8 2 19 21 2 47 17 hvcurveto
          endchar
        </CharString>
        <CharString name="iogonek">
          -325 243 -321 rmoveto
          -21 callsubr
          -121 1495 rmoveto
          -54 callsubr
          -68 -1174 rmoveto
          -53 callsubr
          endchar
        </CharString>
        <CharString name="itilde">
          -329 339 1141 rmoveto
          -25 callsubr
          -209 -1141 rmoveto
          -23 callsubr
          endchar
        </CharString>
        <CharString name="j">
          -285 37 -304 rmoveto
          -52 callsubr
          67 1478 rmoveto
          -51 callsubr
          endchar
        </CharString>
        <CharString name="jcircumflex">
          -292 98 1141 rmoveto
          -26 callsubr
          -61 -1445 rmoveto
          -18 callsubr
          endchar
        </CharString>
        <CharString name="k">
          19 122 hmoveto
          -50 callsubr
          endchar
        </CharString>
        <CharString name="kcommaaccent">
          19 320 -620 rmoveto
          -100 callsubr
          -198 620 rmoveto
          -50 callsubr
          endchar
        </CharString>
        <CharString name="kgreenlandic">
          19 123 hmoveto
          -14 -9 22 43 hvcurveto
          876 vlineto
          43 9 22 14 vhcurveto
          58 hlineto
          15 9 -22 -43 hvcurveto
          -460 vlineto
          -7 1 -4 3 vhcurveto
          3 3 266 470 rlineto
          27 47 10 16 23 0 rrcurveto
          62 hlineto
          6 4 -8 -11 hvcurveto
          0 -12 -4 -15 -10 -17 rrcurveto
          -214 -376 rlineto
          -2 -4 -2 -4 0 -4 0 -5 4 -4 0 -2 rrcurveto
          230 -480 rlineto
          7 -14 3 -15 0 -11 rrcurveto
          -14 -5 -10 -7 vhcurveto
          -70 hlineto
          -13 0 -14 25 -15 36 rrcurveto
          -187 418 rlineto
          -1 4 -2 4 -4 0 -1 0 -2 -1 -3 -4 -21 -32 -65 -117 -2 -1 -3 -7 -2 -10 0 -13 rrcurveto
          -237 vlineto
          -43 -9 -22 -15 vhcurveto
          endchar
        </CharString>
        <CharString name="l">
          -326 132 hmoveto
          -49 callsubr
          endchar
        </CharString>
        <CharString name="lacute">
          -326 152 1567 rmoveto
          -29 callsubr
          -40 -1567 rmoveto
          -49 callsubr
          endchar
        </CharString>
        <CharString name="lcaron">
          -326 426 947 rmoveto
          -100 callsubr
          -294 -947 rmoveto
          -49 callsubr
          endchar
        </CharString>
        <CharString name="lcommaaccent">
          -326 122 -620 rmoveto
          -100 callsubr
          10 620 rmoveto
          -49 callsubr
          endchar
        </CharString>
        <CharString name="ldot">
          -329 377 740 rmoveto
          -20 callsubr
          -345 -740 rmoveto
          -49 callsubr
          endchar
        </CharString>
        <CharString name="less">
          37 432 115 rmoveto
          -4 0 -6 8 -7 8 rrcurveto
          -281 383 rlineto
          -27 36 -8 14 0 42 rrcurveto
          18 vlineto
          0 42 9 10 27 37 rrcurveto
          279 418 rlineto
          6 8 6 3 6 0 rrcurveto
          11 6 -15 -27 hvcurveto
          -28 vlineto
          0 -44 -12 -17 -19 -26 rrcurveto
          -235 -358 rlineto
          -3 -4 -2 -6 0 -5 0 -5 2 -5 4 -4 rrcurveto
          233 -326 rlineto
          20 -25 12 -10 0 -44 rrcurveto
          -39 vlineto
          -25 -6 -14 -11 vhcurveto
          endchar
        </CharString>
        <CharString name="lessequal">
          37 462 225 rmoveto
          -4 0 -6 8 -7 8 rrcurveto
          -281 283 rlineto
          -27 36 -8 14 0 42 rrcurveto
          18 vlineto
          0 42 9 10 27 37 rrcurveto
          279 318 rlineto
          6 8 6 3 6 0 rrcurveto
          11 6 -15 -27 hvcurveto
          -28 vlineto
          0 -44 -12 -17 -19 -26 rrcurveto
          -235 -258 rlineto
          -3 -4 -2 -6 0 -5 0 -5 2 -5 4 -4 rrcurveto
          233 -226 rlineto
          20 -25 12 -10 0 -44 rrcurveto
          -39 vlineto
          -25 -6 -14 -11 vhcurveto
          -310 -148 rmoveto
          -31 callsubr
          endchar
        </CharString>
        <CharString name="logicalnot">
          260 713 288 rmoveto
          -24 -15 10 41 hvcurveto
          208 vlineto
          20 -8 5 -12 vhcurveto
          -483 hlineto
          -23 -15 7 34 hvcurveto
          23 vlineto
          34 15 7 23 vhcurveto
          566 hlineto
          22 18 -8 -34 hvcurveto
          -296 vlineto
          -41 -14 -10 -23 vhcurveto
          endchar
        </CharString>
        <CharString name="lozenge">
          345 -48 rmoveto
          -16 3 -10 13 -11 40 rrcurveto
          -190 683 rlineto
          -2 4 0 3 0 4 0 4 0 4 2 6 rrcurveto
          190 667 rlineto
          12 40 9 13 16 2 rrcurveto
          85 hlineto
          16 -2 9 -13 11 -40 rrcurveto
          182 -667 rlineto
          1 -4 1 -3 0 -3 0 -5 -2 -4 0 -6 rrcurveto
          -182 -683 rlineto
          -11 -41 -9 -12 -16 -3 rrcurveto
          -43 139 rmoveto
          0 1 1 2 hvcurveto
          142 613 -139 589 -2 4 rlineto
          -2 0 0 -3 -1 -1 rrcurveto
          -154 -597 152 -605 rlineto
          -1 1 -2 2 vhcurveto
          endchar
        </CharString>
        <CharString name="lslash">
          -329 189 hmoveto
          -57 hlineto
          -14 -9 20 43 hvcurveto
          0 709 -116 -30 rlineto
          -14 -4 -13 0 0 43 rrcurveto
          30 vlineto
          0 43 13 -8 14 4 rrcurveto
          116 30 0 500 rlineto
          43 9 22 14 vhcurveto
          57 hlineto
          15 8 -22 -43 hvcurveto
          0 -473 113 29 rlineto
          14 4 13 0 0 -43 rrcurveto
          -30 vlineto
          0 -43 -13 8 -14 -4 rrcurveto
          -113 -29 0 -736 rlineto
          -43 -8 -20 -15 vhcurveto
          endchar
        </CharString>
        <CharString name="m">
          409 121 hmoveto
          -48 callsubr
          endchar
        </CharString>
        <CharString name="macron">
          13 152 217 rmoveto
          -31 callsubr
          endchar
        </CharString>
        <CharString name="minus">
          54 104 633 rmoveto
          -19 -14 9 28 hvcurveto
          23 vlineto
          30 14 9 19 vhcurveto
          481 hlineto
          19 14 -9 -29 hvcurveto
          -22 vlineto
          -30 -14 -9 -19 vhcurveto
          endchar
        </CharString>
        <CharString name="multiply">
          166 203 377 rmoveto
          -22 23 rlineto
          -6 6 -5 6 0 8 0 8 6 11 15 15 rrcurveto
          151 151 -151 151 rlineto
          -15 15 -5 10 0 9 0 8 5 7 6 6 rrcurveto
          23 23 rlineto
          6 6 5 5 8 0 8 0 11 -5 15 -16 rrcurveto
          152 -151 151 151 rlineto
          15 15 11 5 8 0 8 0 6 -4 6 -6 rrcurveto
          23 -23 rlineto
          6 -6 5 -7 0 -8 0 -9 -5 -10 -15 -15 rrcurveto
          -151 -151 151 -151 rlineto
          15 -15 6 -11 0 -8 0 -8 -5 -5 -6 -6 rrcurveto
          -23 -24 rlineto
          -6 -6 -7 -5 -8 0 -9 0 -10 5 -15 15 rrcurveto
          -151 151 -152 -151 rlineto
          -15 -15 -10 -6 -8 0 -8 0 -7 6 -7 6 rrcurveto
          endchar
        </CharString>
        <CharString name="n">
          44 122 hmoveto
          -47 callsubr
          endchar
        </CharString>
        <CharString name="nacute">
          44 334 1141 rmoveto
          -29 callsubr
          -232 -1141 rmoveto
          -47 callsubr
          endchar
        </CharString>
        <CharString name="ncaron">
          44 335 1141 rmoveto
          -19 callsubr
          -232 -1141 rmoveto
          -47 callsubr
          endchar
        </CharString>
        <CharString name="ncommaaccent">
          44 304 -620 rmoveto
          -100 callsubr
          -182 620 rmoveto
          -47 callsubr
          endchar
        </CharString>
        <CharString name="nine">
          135 358 -13 rmoveto
          -65 0 -95 33 -40 45 -8 7 -1 17 0 15 rrcurveto
          4 43 rlineto
          4 44 13 -20 6 -5 25 -25 71 -49 86 0 rrcurveto
          139 65 124 306 hvcurveto
          104 vlineto
          -47 -39 -67 -28 -69 0 rrcurveto
          -210 -76 180 262 341 129 127 167 234 57 -216 -542 -603 -117 -121 -205 hvcurveto
          27 670 rmoveto
          47 0 74 14 59 52 rrcurveto
          163 vlineto
          349 -50 134 -128 -118 -62 -130 -240 -207 43 -135 135 vhcurveto
          endchar
        </CharString>
        <CharString name="notequal">
          64 368 460 rmoveto
          217 hlineto
          15 6 0 -43 hvcurveto
          -16 vlineto
          -43 -6 -1 -15 vhcurveto
          -262 0 -91 -211 rlineto
          -10 -22 -21 -11 -17 0 -16 0 -12 8 0 16 0 5 2 4 2 6 rrcurveto
          88 205 -134 0 rlineto
          -15 -6 1 43 hvcurveto
          16 vlineto
          43 6 0 15 vhcurveto
          179 0 72 167 -251 0 rlineto
          -15 -6 1 43 hvcurveto
          15 vlineto
          43 6 1 15 vhcurveto
          295 0 85 194 rlineto
          7 22 20 11 18 0 16 0 13 -8 0 -17 0 -4 0 -5 -2 -5 rrcurveto
          -82 -188 101 0 rlineto
          15 6 -1 -43 hvcurveto
          -15 vlineto
          -43 -6 -1 -15 vhcurveto
          -145 hlineto
          endchar
        </CharString>
        <CharString name="ntilde">
          44 525 1141 rmoveto
          -25 callsubr
          -403 -1141 rmoveto
          -47 callsubr
          endchar
        </CharString>
        <CharString name="numbersign">
          56 155 -191 rmoveto
          -6 0 -4 18 2 17 rrcurveto
          34 460 -63 0 rlineto
          -15 -8 6 35 hvcurveto
          21 vlineto
          35 4 6 15 vhcurveto
          77 0 38 486 -70 0 rlineto
          -15 -10 6 35 hvcurveto
          23 vlineto
          27 8 14 14 vhcurveto
          84 0 44 520 rlineto
          2 21 8 14 6 0 rrcurveto
          50 hlineto
          5 0 4 -18 -1 -17 rrcurveto
          -44 -520 154 0 45 520 rlineto
          1 21 7 14 8 0 rrcurveto
          48 hlineto
          5 0 4 -18 -2 -17 rrcurveto
          -44 -520 64 0 rlineto
          14 8 -14 -27 hvcurveto
          -23 vlineto
          -35 -5 -6 -14 vhcurveto
          -78 0 -37 -486 69 0 rlineto
          16 11 -6 -35 hvcurveto
          -21 vlineto
          -35 -7 -6 -16 vhcurveto
          -84 0 -35 -460 rlineto
          -2 -21 -7 -14 -7 0 rrcurveto
          -48 hlineto
          -6 0 -3 18 1 17 rrcurveto
          35 460 -154 0 -35 -460 rlineto
          -2 -21 -7 -14 -8 0 rrcurveto
          62 598 rmoveto
          154 0 37 486 -153 0 rlineto
          endchar
        </CharString>
        <CharString name="o">
          67 352 73 rmoveto
          -46 callsubr
          1 -85 rmoveto
          -45 callsubr
          endchar
        </CharString>
        <CharString name="oacute">
          67 341 1141 rmoveto
          -29 callsubr
          -9 -1068 rmoveto
          -46 callsubr
          1 -85 rmoveto
          -45 callsubr
          endchar
        </CharString>
        <CharString name="obreve">
          67 349 1141 rmoveto
          -22 callsubr
          3 -1068 rmoveto
          -46 callsubr
          1 -85 rmoveto
          -45 callsubr
          endchar
        </CharString>
        <CharString name="ocircumflex">
          67 264 1141 rmoveto
          -26 callsubr
          88 -1068 rmoveto
          -46 callsubr
          1 -85 rmoveto
          -45 callsubr
          endchar
        </CharString>
        <CharString name="odieresis">
          67 217 1141 rmoveto
          -35 callsubr
          171 hmoveto
          -34 callsubr
          -133 -1068 rmoveto
          -46 callsubr
          1 -85 rmoveto
          -45 callsubr
          endchar
        </CharString>
        <CharString name="oe">
          430 343 -12 rmoveto
          -128 -135 64 452 458 131 57 134 hvcurveto
          86 0 73 -47 43 -142 47 134 62 55 97 0 155 0 66 -143 10 -286 rrcurveto
          -4 -5 -105 -34 vhcurveto
          -341 hlineto
          -4 -3 -6 -9 hvcurveto
          1 -173 32 -220 138 0 122 0 7 134 7 78 1 9 3 10 4 0 rrcurveto
          49 hlineto
          7 5 -3 -10 hvcurveto
          1 -2 1 -31 0 -6 0 -136 -60 -128 -151 0 -102 0 -67 63 -45 151 -37 -162 -81 -52 -89 0 rrcurveto
          258 561 rmoveto
          296 hlineto
          1 0 7 2 hvcurveto
          -8 235 -31 141 -107 0 -75 0 -60 -57 -18 -269 rrcurveto
          -6 0 -53 2 vhcurveto
          -261 -476 rmoveto
          90 65 58 373 386 -70 44 -85 -88 -68 -46 -384 -370 64 -61 92 hvcurveto
          endchar
        </CharString>
        <CharString name="ogonek">
          81 479 -329 rmoveto
          -21 callsubr
          endchar
        </CharString>
        <CharString name="ograve">
          67 341 1141 rmoveto
          -69 callsubr
          -10 -1068 rmoveto
          -46 callsubr
          1 -85 rmoveto
          -45 callsubr
          endchar
        </CharString>
        <CharString name="ohungarumlaut">
          67 277 1141 rmoveto
          -17 callsubr
          121 hmoveto
          -16 callsubr
          -73 -1068 rmoveto
          -46 callsubr
          1 -85 rmoveto
          -45 callsubr
          endchar
        </CharString>
        <CharString name="omacron">
          67 170 1141 rmoveto
          -31 callsubr
          -180 -1068 rmoveto
          -46 callsubr
          1 -85 rmoveto
          -45 callsubr
          endchar
        </CharString>
        <CharString name="one">
          -185 223 hmoveto
          -14 -8 24 43 hvcurveto
          1207 vlineto
          0 20 -6 5 -8 -2 rrcurveto
          -93 -24 rlineto
          -14 -4 -8 4 0 29 rrcurveto
          54 vlineto
          0 18 9 5 13 4 rrcurveto
          183 51 rlineto
          7 2 6 1 5 0 rrcurveto
          12 6 -8 -30 hvcurveto
          -1332 vlineto
          -43 -9 -24 -14 vhcurveto
          endchar
        </CharString>
        <CharString name="onehalf">
          1004 328 286 rmoveto
          -27 callsubr
          191 -164 rmoveto
          -3 -3 9 10 hvcurveto
          0 3 -1 2 1 3 rrcurveto
          241 1428 rlineto
          2 16 6 11 6 0 rrcurveto
          46 hlineto
          5 0 3 -15 -2 -12 rrcurveto
          -240 -1428 rlineto
          -2 -16 -7 -11 -5 0 rrcurveto
          800 164 rmoveto
          -389 hlineto
          -12 -7 5 30 hvcurveto
          0 2 0 45 1 2 7 406 354 129 0 263 0 110 -61 84 -98 0 -106 0 -28 -26 -71 -24 -4 -4 -2 2 -1 5 -9 10 -8 29 0 13 rrcurveto
          0 10 1 18 3 2 77 31 53 20 96 0 130 0 132 -72 0 -209 0 -303 -343 -121 -22 -348 -1 -3 2 -17 2 0 rrcurveto
          305 hlineto
          10 6 -3 -25 hvcurveto
          -34 vlineto
          -24 -6 -3 -11 vhcurveto
          endchar
        </CharString>
        <CharString name="onequarter">
          1092 309 286 rmoveto
          -27 callsubr
          191 -164 rmoveto
          -3 -4 9 10 hvcurveto
          0 3 0 2 1 3 rrcurveto
          241 1428 rlineto
          2 16 6 11 6 0 rrcurveto
          46 hlineto
          5 0 3 -15 -2 -12 rrcurveto
          -240 -1428 rlineto
          -2 -16 -7 -11 -5 0 rrcurveto
          769 164 rmoveto
          -18 -10 7 34 hvcurveto
          186 -299 vlineto
          -28 -22 15 29 hvcurveto
          0 3 0 3 1 4 rrcurveto
          108 816 rlineto
          5 34 4 20 20 0 rrcurveto
          32 hlineto
          18 4 -19 -17 hvcurveto
          0 -7 -1 -6 -1 -5 rrcurveto
          -92 -766 rlineto
          -2 -11 3 -8 15 0 rrcurveto
          235 796 hlineto
          34 10 9 18 vhcurveto
          29 hlineto
          18 10 -9 -34 hvcurveto
          -796 129 vlineto
          31 11 -4 -29 hvcurveto
          -18 vlineto
          -29 -11 -5 -31 vhcurveto
          -129 -186 hlineto
          -34 -10 -7 -18 vhcurveto
          endchar
        </CharString>
        <CharString name="ordfeminine">
          34 287 614 rmoveto
          -114 -49 78 122 hvcurveto
          0 286 278 -5 44 17 rrcurveto
          46 vlineto
          118 -13 95 -93 vhcurveto
          -86 0 -21 -53 -25 -74 -7 -20 -7 -5 -10 3 -11 2 -32 10 -2 10 -2 5 2 19 4 12 27 91 46 67 126 0 rrcurveto
          132 57 -87 -215 hvcurveto
          -475 vlineto
          -28 -5 -12 -10 vhcurveto
          -11 hlineto
          -9 0 -7 15 -3 18 -2 24 -17 81 -1 29 -1 5 -3 2 -2 -7 -22 -106 -50 -68 -101 0 rrcurveto
          13 66 rmoveto
          102 46 145 177 11 0 39 -5 hvcurveto
          -1 0 -45 -6 -2 -1 -158 -31 -38 -88 0 -104 rrcurveto
          -88 27 -54 74 vhcurveto
          endchar
        </CharString>
        <CharString name="ordmasculine">
          67 352 681 rmoveto
          72 58 47 298 309 -61 35 -69 -70 -61 -37 -307 -296 57 -49 74 hvcurveto
          1 -68 rmoveto
          -102 -117 51 362 366 113 46 106 106 109 -46 -366 -361 -115 -52 -100 hvcurveto
          endchar
        </CharString>
        <CharString name="oslash">
          67 154 -74 rmoveto
          -34 15 rlineto
          -1 0 1 2 hvcurveto
          0 4 2 8 2 7 rrcurveto
          429 1116 rlineto
          6 11 5 8 3 0 rrcurveto
          1 0 33 -13 rlineto
          1 1 -2 -3 hvcurveto
          0 -5 -2 -6 -3 -6 rrcurveto
          -429 -1118 rlineto
          -4 -12 -5 -7 -4 0 rrcurveto
          197 147 rmoveto
          -46 callsubr
          1 -85 rmoveto
          -45 callsubr
          endchar
        </CharString>
        <CharString name="otilde">
          67 532 1141 rmoveto
          -25 callsubr
          -180 -1068 rmoveto
          -46 callsubr
          1 -85 rmoveto
          -45 callsubr
          endchar
        </CharString>
        <CharString name="p">
          83 121 -401 rmoveto
          -44 callsubr
          188 474 rmoveto
          -43 callsubr
          endchar
        </CharString>
        <CharString name="paragraph">
          367 530 -1 rmoveto
          -35 -7 26 43 hvcurveto
          795 -21 vlineto
          -175 -183 70 216 207 131 82 307 hvcurveto
          163 0 74 -13 40 -10 35 -8 3 -19 0 -29 rrcurveto
          0 -22 0 -1269 rlineto
          -43 -8 -26 -35 vhcurveto
          -13 hlineto
          -35 -7 26 43 hvcurveto
          774 vlineto
          12 -9 9 -10 vhcurveto
          -157 -795 hlineto
          -43 -7 -26 -35 vhcurveto
          endchar
        </CharString>
        <CharString name="parenleft">
          -237 282 -143 rmoveto
          -139 73 -47 369 0 400 0 401 47 368 139 72 1 1 1 0 1 0 rrcurveto
          12 11 -36 -35 hvcurveto
          -36 vlineto
          0 -69 -13 -4 -21 -31 -44 -66 -40 -146 0 -419 0 -419 41 -148 44 -66 22 -31 11 -5 0 -69 rrcurveto
          -34 vlineto
          -35 -11 -36 -12 vhcurveto
          -1 0 -1 0 -1 1 rrcurveto
          endchar
        </CharString>
        <CharString name="parenright">
          -232 118 -143 rmoveto
          -1 -1 -1 0 -1 0 rrcurveto
          -12 -12 36 35 hvcurveto
          36 vlineto
          0 69 14 4 20 31 45 66 40 146 0 419 0 419 -40 148 -45 66 -20 31 -14 5 0 69 rrcurveto
          34 vlineto
          35 12 36 12 vhcurveto
          1 0 1 0 1 -1 139 -73 48 -369 0 -400 0 -401 -48 -368 -139 -72 rrcurveto
          endchar
        </CharString>
        <CharString name="percent">
          374 364 -82 rmoveto
          -106 callsubr
          -181 830 rmoveto
          -105 callsubr
          -84 vmoveto
          -104 callsubr
          592 -581 rmoveto
          -103 callsubr
          -84 vmoveto
          -102 callsubr
          endchar
        </CharString>
        <CharString name="period">
          -332 108 hmoveto
          -99 callsubr
          endchar
        </CharString>
        <CharString name="perthousand">
          796 364 -82 rmoveto
          -106 callsubr
          -181 830 rmoveto
          -105 callsubr
          -84 vmoveto
          -104 callsubr
          592 -581 rmoveto
          -103 callsubr
          -84 vmoveto
          -102 callsubr
          411 84 rmoveto
          -103 callsubr
          -84 vmoveto
          -102 callsubr
          endchar
        </CharString>
        <CharString name="plus">
          166 395 298 rmoveto
          -101 callsubr
          endchar
        </CharString>
        <CharString name="plusminus">
          166 395 336 rmoveto
          -101 callsubr
          -269 -241 rmoveto
          -17 -14 4 33 hvcurveto
          15 vlineto
          34 14 3 17 vhcurveto
          502 hlineto
          16 15 -3 -34 hvcurveto
          -15 vlineto
          -33 -15 -4 -16 vhcurveto
          endchar
        </CharString>
        <CharString name="product">
          246 132 hmoveto
          -16 -8 4 43 hvcurveto
          1344 vlineto
          43 8 4 16 vhcurveto
          619 hlineto
          14 9 -4 -43 hvcurveto
          -1344 vlineto
          -43 -9 -4 -14 vhcurveto
          -66 hlineto
          -17 -10 4 43 hvcurveto
          1276 vlineto
          12 -4 7 -4 vhcurveto
          -421 hlineto
          -3 -3 -6 -11 hvcurveto
          -1278 vlineto
          -43 -10 -4 -16 vhcurveto
          endchar
        </CharString>
        <CharString name="q">
          76 535 -401 rmoveto
          -14 -10 16 43 hvcurveto
          504 vlineto
          7 -1 3 -2 vhcurveto
          -1 0 -2 -2 -1 -4 -39 -119 -64 -59 -72 0 rrcurveto
          -132 -117 116 404 391 133 120 126 hvcurveto
          86 0 65 -79 41 -162 2 -4 1 -3 2 0 2 0 3 5 0 6 0 27 10 94 4 30 8 66 10 11 11 0 rrcurveto
          14 hlineto
          14 5 -15 -43 hvcurveto
          -1294 vlineto
          -43 -8 -16 -15 vhcurveto
          -246 474 rmoveto
          88 75 161 271 251 -71 178 -92 -90 -71 -153 -276 -336 76 -96 85 hvcurveto
          endchar
        </CharString>
        <CharString name="question">
          98 250 481 rmoveto
          -7 10 -8 7 -6 13 -14 13 13 26 2 3 52 145 31 29 101 65 117 74 52 112 0 109 -1 150 -97 115 -142 0 -74 0 -73 -26 -65 -41 rrcurveto
          -11 -6 -7 3 -7 8 -17 0 -15 33 0 16 0 17 9 16 20 9 77 43 87 27 78 0 208 0 125 -142 2 -219 0 -161 -106 -152 -161 -85 rrcurveto
          -77 -42 -16 -64 -36 -93 -1 -2 -9 -27 -24 17 rrcurveto
          -19 -481 rmoveto
          -19 -14 16 38 hvcurveto
          55 vlineto
          38 14 16 19 vhcurveto
          54 hlineto
          19 14 -16 -38 hvcurveto
          -55 vlineto
          -38 -14 -16 -19 vhcurveto
          endchar
        </CharString>
        <CharString name="questiondown">
          120 517 661 rmoveto
          7 -10 8 -7 6 -13 14 -13 -13 -26 -2 -3 -52 -145 -31 -29 -101 -65 -117 -74 -52 -112 0 -109 1 -150 97 -115 142 0 74 0 73 26 65 41 rrcurveto
          11 6 7 -3 7 -8 17 0 15 -33 0 -16 0 -17 -9 -16 -20 -9 -77 -43 -87 -27 -78 0 -208 0 -125 142 -2 219 0 161 106 152 161 85 rrcurveto
          77 42 16 64 36 93 1 2 9 27 24 -17 rrcurveto
          19 481 rmoveto
          19 14 -16 -38 hvcurveto
          -55 vlineto
          -38 -14 -16 -19 vhcurveto
          -54 hlineto
          -19 -14 16 38 hvcurveto
          55 vlineto
          38 14 16 19 vhcurveto
          endchar
        </CharString>
        <CharString name="quotedbl">
          -209 104 800 rmoveto
          -14 0 -2 23 -2 38 rrcurveto
          -29 528 0 8 rlineto
          32 11 29 13 vhcurveto
          63 hlineto
          14 9 -32 -33 hvcurveto
          0 -5 -26 -527 rlineto
          -2 -38 -1 -23 -15 0 rrcurveto
          181 hmoveto
          -14 0 -2 23 -2 38 rrcurveto
          -29 528 0 8 rlineto
          32 11 29 14 vhcurveto
          62 hlineto
          14 9 -32 -33 hvcurveto
          0 -5 -26 -527 rlineto
          -2 -38 -1 -23 -15 0 rrcurveto
          endchar
        </CharString>
        <CharString name="quotedblbase">
          -75 365 -217 rmoveto
          -10 callsubr
          -206 hmoveto
          -10 callsubr
          endchar
        </CharString>
        <CharString name="quotedblleft">
          -105 115 895 rmoveto
          -12 callsubr
          142 hmoveto
          -12 callsubr
          endchar
        </CharString>
        <CharString name="quotedblright">
          -104 114 897 rmoveto
          -11 callsubr
          218 hmoveto
          -2 -1 -1 0 -2 0 rrcurveto
          -10 -8 15 31 hvcurveto
          12 vlineto
          0 54 6 -5 16 26 25 41 13 77 0 32 rrcurveto
          16 0 11 -6 vhcurveto
          -33 hlineto
          -13 -8 14 38 hvcurveto
          199 vlineto
          43 6 20 15 vhcurveto
          84 hlineto
          14 12 -30 -43 hvcurveto
          -160 vlineto
          0 -237 -60 -130 -48 -23 rrcurveto
          endchar
        </CharString>
        <CharString name="quoteleft">
          -325 115 895 rmoveto
          -12 callsubr
          endchar
        </CharString>
        <CharString name="quoteright">
          -331 114 897 rmoveto
          -11 callsubr
          endchar
        </CharString>
        <CharString name="quotesinglbase">
          -261 178 -217 rmoveto
          -10 callsubr
          endchar
        </CharString>
        <CharString name="quotesingle">
          -261 178 800 rmoveto
          -14 0 -2 23 -2 38 rrcurveto
          -28 528 0 10 rlineto
          31 11 28 13 vhcurveto
          62 hlineto
          14 9 -32 -33 hvcurveto
          0 -5 -26 -527 rlineto
          -2 -38 -1 -23 -15 0 rrcurveto
          endchar
        </CharString>
        <CharString name="r">
          -206 121 hmoveto
          -42 callsubr
          endchar
        </CharString>
        <CharString name="racute">
          -206 230 1141 rmoveto
          -29 callsubr
          -129 -1141 rmoveto
          -42 callsubr
          endchar
        </CharString>
        <CharString name="rcaron">
          -206 230 1141 rmoveto
          -19 callsubr
          -128 -1141 rmoveto
          -42 callsubr
          endchar
        </CharString>
        <CharString name="rcommaaccent">
          -206 200 -620 rmoveto
          -100 callsubr
          -79 620 rmoveto
          -42 callsubr
          endchar
        </CharString>
        <CharString name="registered">
          713 486 334 rmoveto
          -10 -6 6 20 hvcurveto
          730 vlineto
          24 6 4 10 vhcurveto
          161 hlineto
          128 114 -8 -189 hvcurveto
          0 -110 -39 -55 -66 -14 -2 0 -4 -3 7 -3 50 -18 51 -30 2 -117 rrcurveto
          -206 vlineto
          -22 -6 -9 -7 vhcurveto
          -47 hlineto
          -11 0 -3 9 -1 25 0 17 -4 212 -2 3 -4 101 -55 9 -83 0 rrcurveto
          -112 hlineto
          -4 -1 -4 -6 hvcurveto
          -340 vlineto
          -20 -5 -6 -10 vhcurveto
          19 443 rmoveto
          120 hlineto
          102 41 15 128 135 -60 2 -104 hvcurveto
          -98 hlineto
          -4 -1 -4 -4 hvcurveto
          -265 vlineto
          -3 1 -4 3 vhcurveto
          124 -713 rmoveto
          -33 callsubr
          -2 -78 rmoveto
          -32 callsubr
          endchar
        </CharString>
        <CharString name="ring">
          168 400 539 rmoveto
          -24 callsubr
          -48 vmoveto
          -30 callsubr
          endchar
        </CharString>
        <CharString name="s">
          -74 515 252 rmoveto
          -41 callsubr
          endchar
        </CharString>
        <CharString name="sacute">
          -74 266 1141 rmoveto
          -29 callsubr
          229 -889 rmoveto
          -41 callsubr
          endchar
        </CharString>
        <CharString name="scaron">
          -74 267 1141 rmoveto
          -19 callsubr
          229 -889 rmoveto
          -41 callsubr
          endchar
        </CharString>
        <CharString name="scedilla">
          -74 270 -546 rmoveto
          -28 callsubr
          245 798 rmoveto
          -41 callsubr
          endchar
        </CharString>
        <CharString name="scircumflex">
          -74 190 1141 rmoveto
          -26 callsubr
          325 -889 rmoveto
          -41 callsubr
          endchar
        </CharString>
        <CharString name="scommaaccent">
          -74 236 -632 rmoveto
          -100 callsubr
          279 884 rmoveto
          -41 callsubr
          endchar
        </CharString>
        <CharString name="section">
          96 368 -14 rmoveto
          -102 0 -75 33 -71 74 -3 2 -2 22 0 4 0 2 16 35 0 0 2 8 20 8 5 -2 63 -65 60 -38 92 0 110 0 52 88 0 101 rrcurveto
          0 115 -68 53 -95 44 -120 55 -109 58 0 182 0 97 38 65 62 39 -58 50 -42 67 0 110 0 173 109 85 125 0 80 0 65 -23 59 -55 rrcurveto
          3 -2 5 -18 0 -4 0 -2 -20 -38 0 0 -2 -7 -17 -6 -5 3 -46 43 -38 26 -77 0 -107 0 -42 -79 0 -88 0 -103 46 -47 103 -48 rrcurveto
          129 -58 113 -62 0 -193 0 -92 -36 -67 -57 -43 53 -52 40 -67 0 -107 0 -163 -86 -113 -172 0 rrcurveto
          100 551 rmoveto
          45 24 29 62 0 65 0 116 -71 50 -99 44 -22 6 -19 7 -19 9 -55 -22 -28 -55 0 -69 0 -101 54 -49 101 -49 32 -13 41 -21 11 -4 rrcurveto
          endchar
        </CharString>
        <CharString name="semicolon">
          -315 121 -309 rmoveto
          -2 -1 -1 0 -2 0 rrcurveto
          -10 -8 15 31 hvcurveto
          12 vlineto
          0 54 5 -5 16 26 26 41 12 77 0 32 rrcurveto
          16 0 11 -6 vhcurveto
          -32 hlineto
          -13 -8 14 38 hvcurveto
          200 vlineto
          43 6 19 15 vhcurveto
          83 hlineto
          15 12 -30 -43 hvcurveto
          -160 vlineto
          0 -237 -60 -130 -48 -23 rrcurveto
          9 1043 rmoveto
          -14 -11 30 43 hvcurveto
          163 vlineto
          43 11 30 14 vhcurveto
          65 hlineto
          15 11 -30 -43 hvcurveto
          -163 vlineto
          -43 -11 -30 -15 vhcurveto
          endchar
        </CharString>
        <CharString name="seven">
          -136 192 hmoveto
          -13 -11 7 29 hvcurveto
          0 4 0 6 1 5 rrcurveto
          122 1269 rlineto
          1 11 -4 4 -7 0 rrcurveto
          -174 hlineto
          -15 -8 2 29 hvcurveto
          45 vlineto
          24 8 3 15 vhcurveto
          285 hlineto
          14 9 -5 -27 hvcurveto
          0 -5 0 -6 -1 -6 rrcurveto
          -133 -1338 rlineto
          -4 -41 -5 -10 -15 0 rrcurveto
          endchar
        </CharString>
        <CharString name="six">
          160 94 721 rmoveto
          557 110 174 234 vhcurveto
          87 0 83 -37 39 -34 8 -7 4 -18 0 -8 1 -7 -4 -29 -3 -6 -5 -16 -8 -8 -11 8 -32 22 -55 46 -95 0 rrcurveto
          -163 -72 -136 -368 hvcurveto
          -38 vlineto
          80 31 77 17 57 0 rrcurveto
          230 57 -196 -237 -360 -135 -84 -174 -256 -54 265 469 hvcurveto
          314 -640 rmoveto
          125 69 76 282 166 -30 163 -151 hvcurveto
          -52 0 -75 -15 -85 -32 rrcurveto
          -56 vlineto
          -421 45 -163 154 vhcurveto
          endchar
        </CharString>
        <CharString name="slash">
          -145 85 -205 rmoveto
          -5 -4 12 14 hvcurveto
          0 3 1 3 0 3 rrcurveto
          234 1782 rlineto
          2 21 9 14 6 0 rrcurveto
          81 hlineto
          4 4 -13 -14 hvcurveto
          0 -8 -234 -1782 rlineto
          -3 -21 -6 -14 -7 0 rrcurveto
          endchar
        </CharString>
        <CharString name="space">
          -325 endchar
        </CharString>
        <CharString name="sterling">
          244 561 1456 rmoveto
          129 0 69 -42 24 -14 19 -11 19 -13 0 -20 0 -3 0 -3 -1 -3 rrcurveto
          -6 -26 rlineto
          -8 -26 -13 1 -27 14 -38 16 -49 36 -105 0 rrcurveto
          -214 -31 -100 -352 hvcurveto
          -148 327 vlineto
          17 13 -6 -28 hvcurveto
          -17 vlineto
          -27 -13 -7 -17 vhcurveto
          -329 -548 hlineto
          -37 2 -5 28 vhcurveto
          421 hlineto
          24 8 -4 -26 hvcurveto
          -30 vlineto
          -24 -8 -3 -24 vhcurveto
          -697 hlineto
          -37 -8 6 26 hvcurveto
          23 vlineto
          27 8 5 37 vhcurveto
          106 hlineto
          25 2 3 20 hvcurveto
          524 vlineto
          27 -6 16 -21 vhcurveto
          -119 hlineto
          -16 -16 7 27 hvcurveto
          17 vlineto
          28 16 6 16 vhcurveto
          145 148 hlineto
          324 28 222 320 vhcurveto
          endchar
        </CharString>
        <CharString name="t">
          -186 309 -3 rmoveto
          -40 callsubr
          endchar
        </CharString>
        <CharString name="tcaron">
          -186 633 977 rmoveto
          -100 callsubr
          -324 -980 rmoveto
          -40 callsubr
          endchar
        </CharString>
        <CharString name="thorn">
          74 121 -469 rmoveto
          -14 -9 26 43 hvcurveto
          1766 vlineto
          43 9 26 14 vhcurveto
          57 hlineto
          15 8 -26 -43 hvcurveto
          -521 vlineto
          -9 2 -2 1 1 2 4 1 vhcurveto
          41 122 76 58 74 0 rrcurveto
          121 113 -112 -404 -391 -131 -124 -115 hvcurveto
          -68 0 -73 51 -44 127 rrcurveto
          -566 vlineto
          -43 -8 -26 -15 vhcurveto
          189 542 rmoveto
          -65 callsubr
          endchar
        </CharString>
        <CharString name="three">
          57 498 1058 rmoveto
          224 -70 76 -129 vhcurveto
          -98 0 -68 -27 -47 -28 -4 -3 -2 2 -1 8 -5 0 -6 31 0 12 0 12 5 24 11 7 69 40 78 16 76 0 169 0 132 -91 0 -299 rrcurveto
          0 -193 -65 -97 -130 -37 148 -26 58 -137 0 -201 0 -311 -159 -73 -168 0 -83 0 -75 16 -47 28 -9 6 -4 23 0 12 0 13 5 34 7 0 rrcurveto
          1 7 2 4 4 -4 37 -21 53 -25 101 0 160 0 69 85 0 227 -1 219 -72 67 -138 5 rrcurveto
          -36 hlineto
          -18 -3 9 18 hvcurveto
          52 vlineto
          11 2 14 19 167 65 71 200 vhcurveto
          endchar
        </CharString>
        <CharString name="threequarters">
          1234 517 1132 rmoveto
          179 -56 61 -103 vhcurveto
          -78 0 -55 -22 -38 -22 -3 -2 -1 1 -1 6 -4 0 -5 25 0 10 0 10 4 18 9 6 55 32 62 13 61 0 135 0 106 -73 0 -239 rrcurveto
          0 -154 -52 -78 -104 -30 118 -21 47 -109 0 -161 0 -249 -128 -58 -134 0 -66 0 -60 13 -38 22 -7 5 -3 18 0 10 0 10 3 27 6 0 rrcurveto
          1 6 2 3 3 -3 30 -17 42 -20 81 0 128 0 55 68 0 182 -1 175 -58 54 -110 4 rrcurveto
          -29 hlineto
          -14 -3 7 14 hvcurveto
          42 vlineto
          9 2 11 15 134 52 57 160 vhcurveto
          218 -1011 rmoveto
          -3 -3 9 10 hvcurveto
          0 3 0 2 1 3 rrcurveto
          240 1428 rlineto
          2 16 7 11 6 0 rrcurveto
          45 hlineto
          5 0 3 -15 -2 -12 rrcurveto
          -240 -1428 rlineto
          -2 -16 -7 -11 -5 0 rrcurveto
          769 164 rmoveto
          -18 -10 7 34 hvcurveto
          186 -299 vlineto
          -28 -22 15 29 hvcurveto
          0 3 0 3 1 4 rrcurveto
          108 816 rlineto
          5 34 5 20 20 0 rrcurveto
          31 hlineto
          18 4 -19 -17 hvcurveto
          0 -7 0 -6 -1 -5 rrcurveto
          -92 -766 rlineto
          -2 -11 2 -8 15 0 rrcurveto
          235 796 hlineto
          34 10 9 18 vhcurveto
          30 hlineto
          18 10 -9 -34 hvcurveto
          -796 129 vlineto
          31 10 -4 -29 hvcurveto
          -18 vlineto
          -29 -10 -5 -31 vhcurveto
          -129 -186 hlineto
          -34 -10 -7 -18 vhcurveto
          endchar
        </CharString>
        <CharString name="tilde">
          -159 419 825 rmoveto
          -25 callsubr
          endchar
        </CharString>
        <CharString name="trademark">
          641 577 431 rmoveto
          -10 0 -7 14 1 30 rrcurveto
          39 917 rlineto
          1 29 5 15 10 1 rrcurveto
          56 hlineto
          10 -1 13 -7 7 -29 rrcurveto
          152 -772 rlineto
          1 -2 6 0 0 2 rrcurveto
          151 766 rlineto
          6 29 11 13 10 1 rrcurveto
          64 hlineto
          10 -1 4 -15 1 -29 rrcurveto
          40 -917 0 -6 rlineto
          -26 -6 -12 -9 vhcurveto
          -46 hlineto
          -10 0 -6 14 -1 30 rrcurveto
          -23 768 rlineto
          0 1 -4 2 0 -1 rrcurveto
          -156 -772 rlineto
          -6 -28 -10 -14 -10 0 rrcurveto
          -28 hlineto
          -10 0 -9 14 -6 28 rrcurveto
          -153 765 rlineto
          0 -3 -3 -1 hvcurveto
          -24 -759 rlineto
          -1 -30 -4 -14 -10 0 rrcurveto
          -353 hmoveto
          -10 -6 3 30 hvcurveto
          889 vlineto
          14 -2 3 -5 vhcurveto
          -127 hlineto
          -10 -7 0 22 hvcurveto
          20 vlineto
          25 7 1 10 vhcurveto
          344 hlineto
          10 6 -1 -25 hvcurveto
          -20 vlineto
          -22 -6 0 -10 vhcurveto
          -125 hlineto
          -5 -2 -3 -14 hvcurveto
          -889 vlineto
          -30 -6 -3 -10 vhcurveto
          endchar
        </CharString>
        <CharString name="two">
          124 616 hmoveto
          -486 hlineto
          -15 -9 7 37 hvcurveto
          0 2 0 57 1 2 9 507 459 134 0 356 0 188 -80 68 -123 0 -132 0 -48 -32 -89 -30 -5 -5 -2 3 -1 6 -11 13 -11 36 0 16 rrcurveto
          0 12 2 8 4 3 96 39 78 25 120 0 162 0 148 -77 0 -261 0 -379 -439 -164 -28 -435 -1 -4 2 -45 3 0 rrcurveto
          397 hlineto
          13 7 -4 -31 hvcurveto
          -19 vlineto
          -30 -7 -3 -14 vhcurveto
          endchar
        </CharString>
        <CharString name="u">
          40 291 -12 rmoveto
          -39 callsubr
          endchar
        </CharString>
        <CharString name="uacute">
          40 323 1141 rmoveto
          -29 callsubr
          -52 -1153 rmoveto
          -39 callsubr
          endchar
        </CharString>
        <CharString name="ubreve">
          40 331 1141 rmoveto
          -22 callsubr
          -40 -1153 rmoveto
          -39 callsubr
          endchar
        </CharString>
        <CharString name="ucircumflex">
          40 246 1141 rmoveto
          -26 callsubr
          45 -1153 rmoveto
          -39 callsubr
          endchar
        </CharString>
        <CharString name="udieresis">
          40 199 1141 rmoveto
          -35 callsubr
          171 hmoveto
          -34 callsubr
          -176 -1153 rmoveto
          -39 callsubr
          endchar
        </CharString>
        <CharString name="ugrave">
          40 323 1141 rmoveto
          -69 callsubr
          -53 -1153 rmoveto
          -39 callsubr
          endchar
        </CharString>
        <CharString name="uhungarumlaut">
          40 259 1141 rmoveto
          -17 callsubr
          121 hmoveto
          -16 callsubr
          -116 -1153 rmoveto
          -39 callsubr
          endchar
        </CharString>
        <CharString name="umacron">
          40 152 1141 rmoveto
          -31 callsubr
          -223 -1153 rmoveto
          -39 callsubr
          endchar
        </CharString>
        <CharString name="underscore">
          31 63 -39 rmoveto
          -19 -12 4 29 hvcurveto
          20 vlineto
          30 12 4 19 vhcurveto
          542 hlineto
          19 13 -4 -28 hvcurveto
          -21 vlineto
          -30 -13 -4 -19 vhcurveto
          endchar
        </CharString>
        <CharString name="uni00A0">
          -325 endchar
        </CharString>
        <CharString name="uni00AD">
          -95 98 590 rmoveto
          -13 -10 0 25 hvcurveto
          8 vlineto
          27 10 0 13 vhcurveto
          364 hlineto
          13 10 0 -25 hvcurveto
          -8 vlineto
          -27 -10 0 -13 vhcurveto
          endchar
        </CharString>
        <CharString name="uni01C4">
          909 1224 1574 rmoveto
          -19 callsubr
          -240 -1574 rmoveto
          -70 callsubr
          -1232 90 rmoveto
          -92 callsubr
          -101 -90 rmoveto
          -91 callsubr
          endchar
        </CharString>
        <CharString name="uni01C5">
          777 1158 1141 rmoveto
          -19 callsubr
          -181 -1141 rmoveto
          -36 callsubr
          -1114 90 rmoveto
          -92 callsubr
          -101 -90 rmoveto
          -91 callsubr
          endchar
        </CharString>
        <CharString name="uni01C6">
          594 975 1141 rmoveto
          -19 callsubr
          -181 -1141 rmoveto
          -36 callsubr
          -624 224 rmoveto
          -63 callsubr
          -27 282 rmoveto
          -62 callsubr
          endchar
        </CharString>
        <CharString name="uni01C7">
          410 605 -145 rmoveto
          -85 callsubr
          -474 145 rmoveto
          -83 callsubr
          endchar
        </CharString>
        <CharString name="uni01C8">
          289 611 -304 rmoveto
          -52 callsubr
          67 1478 rmoveto
          -51 callsubr
          -673 -1174 rmoveto
          -83 callsubr
          endchar
        </CharString>
        <CharString name="uni01C9">
          24 346 -304 rmoveto
          -52 callsubr
          67 1478 rmoveto
          -51 callsubr
          -407 -1174 rmoveto
          -49 callsubr
          endchar
        </CharString>
        <CharString name="uni01CA">
          725 920 -145 rmoveto
          -85 callsubr
          -788 145 rmoveto
          -81 callsubr
          endchar
        </CharString>
        <CharString name="uni01CB">
          604 926 -304 rmoveto
          -52 callsubr
          67 1478 rmoveto
          -51 callsubr
          -987 -1174 rmoveto
          -81 callsubr
          endchar
        </CharString>
        <CharString name="uni01CC">
          394 716 -304 rmoveto
          -52 callsubr
          67 1478 rmoveto
          -51 callsubr
          -787 -1174 rmoveto
          -47 callsubr
          endchar
        </CharString>
        <CharString name="uni01F1">
          909 1003 hmoveto
          -70 callsubr
          -1232 90 rmoveto
          -92 callsubr
          -101 -90 rmoveto
          -91 callsubr
          endchar
        </CharString>
        <CharString name="uni01F2">
          777 996 hmoveto
          -36 callsubr
          -1114 90 rmoveto
          -92 callsubr
          -101 -90 rmoveto
          -91 callsubr
          endchar
        </CharString>
        <CharString name="uni01F3">
          594 813 hmoveto
          -36 callsubr
          -624 224 rmoveto
          -63 callsubr
          -27 282 rmoveto
          -62 callsubr
          endchar
        </CharString>
        <CharString name="uni01F4">
          221 423 1574 rmoveto
          -29 callsubr
          306 -1589 rmoveto
          -88 callsubr
          endchar
        </CharString>
        <CharString name="uni01F5">
          -1 330 1436 rmoveto
          -29 callsubr
          -30 -1728 rmoveto
          -58 callsubr
          -5 74 rmoveto
          -57 callsubr
          18 642 rmoveto
          -56 callsubr
          endchar
        </CharString>
        <CharString name="uni0200">
          280 1574 rmoveto
          -15 callsubr
          183 hmoveto
          -14 callsubr
          -417 -1574 rmoveto
          -98 callsubr
          121 427 rmoveto
          -97 callsubr
          endchar
        </CharString>
        <CharString name="uni0201">
          34 223 1141 rmoveto
          -15 callsubr
          183 hmoveto
          -14 callsubr
          -155 -1153 rmoveto
          -68 callsubr
          16 82 rmoveto
          -67 callsubr
          endchar
        </CharString>
        <CharString name="uni0202">
          209 1574 rmoveto
          -13 callsubr
          -204 -1574 rmoveto
          -98 callsubr
          121 427 rmoveto
          -97 callsubr
          endchar
        </CharString>
        <CharString name="uni0203">
          34 152 1141 rmoveto
          -13 callsubr
          58 -1153 rmoveto
          -68 callsubr
          16 82 rmoveto
          -67 callsubr
          endchar
        </CharString>
        <CharString name="uni0204">
          53 261 1574 rmoveto
          -15 callsubr
          183 hmoveto
          -14 callsubr
          -339 -1574 rmoveto
          -90 callsubr
          endchar
        </CharString>
        <CharString name="uni0205">
          27 233 1141 rmoveto
          -15 callsubr
          183 hmoveto
          -14 callsubr
          -81 -1153 rmoveto
          -61 callsubr
          -169 561 rmoveto
          -60 callsubr
          endchar
        </CharString>
        <CharString name="uni0206">
          53 190 1574 rmoveto
          -13 callsubr
          -126 -1574 rmoveto
          -90 callsubr
          endchar
        </CharString>
        <CharString name="uni0207">
          27 162 1141 rmoveto
          -13 callsubr
          132 -1153 rmoveto
          -61 callsubr
          -169 561 rmoveto
          -60 callsubr
          endchar
        </CharString>
        <CharString name="uni0208">
          -303 63 1574 rmoveto
          -15 callsubr
          183 hmoveto
          -14 callsubr
          -137 -1574 rmoveto
          -86 callsubr
          endchar
        </CharString>
        <CharString name="uni0209">
          -329 54 1141 rmoveto
          -15 callsubr
          183 hmoveto
          -14 callsubr
          -133 -1141 rmoveto
          -23 callsubr
          endchar
        </CharString>
        <CharString name="uni020A">
          -303 -8 1574 rmoveto
          -13 callsubr
          76 -1574 rmoveto
          -86 callsubr
          endchar
        </CharString>
        <CharString name="uni020B">
          -329 -17 1141 rmoveto
          -13 callsubr
          80 -1141 rmoveto
          -23 callsubr
          endchar
        </CharString>
        <CharString name="uni020C">
          235 331 1574 rmoveto
          -15 callsubr
          183 hmoveto
          -14 callsubr
          -106 -1495 rmoveto
          -80 callsubr
          -93 vmoveto
          -79 callsubr
          endchar
        </CharString>
        <CharString name="uni020D">
          67 247 1141 rmoveto
          -15 callsubr
          183 hmoveto
          -14 callsubr
          -104 -1068 rmoveto
          -46 callsubr
          1 -85 rmoveto
          -45 callsubr
          endchar
        </CharString>
        <CharString name="uni020E">
          235 260 1574 rmoveto
          -13 callsubr
          107 -1495 rmoveto
          -80 callsubr
          -93 vmoveto
          -79 callsubr
          endchar
        </CharString>
        <CharString name="uni020F">
          67 176 1141 rmoveto
          -13 callsubr
          109 -1068 rmoveto
          -46 callsubr
          1 -85 rmoveto
          -45 callsubr
          endchar
        </CharString>
        <CharString name="uni0210">
          238 337 1574 rmoveto
          -15 callsubr
          183 hmoveto
          -14 callsubr
          -415 -1574 rmoveto
          -76 callsubr
          31 793 rmoveto
          -75 callsubr
          endchar
        </CharString>
        <CharString name="uni0211">
          -206 135 1141 rmoveto
          -15 callsubr
          183 hmoveto
          -14 callsubr
          -223 -1141 rmoveto
          -42 callsubr
          endchar
        </CharString>
        <CharString name="uni0212">
          238 266 1574 rmoveto
          -13 callsubr
          -202 -1574 rmoveto
          -76 callsubr
          31 793 rmoveto
          -75 callsubr
          endchar
        </CharString>
        <CharString name="uni0213">
          -206 64 1141 rmoveto
          -13 callsubr
          -10 -1141 rmoveto
          -42 callsubr
          endchar
        </CharString>
        <CharString name="uni0214">
          283 354 1574 rmoveto
          -15 callsubr
          183 hmoveto
          -14 callsubr
          -96 -1588 rmoveto
          -73 callsubr
          endchar
        </CharString>
        <CharString name="uni0215">
          40 229 1141 rmoveto
          -15 callsubr
          183 hmoveto
          -14 callsubr
          -147 -1153 rmoveto
          -39 callsubr
          endchar
        </CharString>
        <CharString name="uni0216">
          283 283 1574 rmoveto
          -13 callsubr
          117 -1588 rmoveto
          -73 callsubr
          endchar
        </CharString>
        <CharString name="uni0217">
          40 158 1141 rmoveto
          -13 callsubr
          66 -1153 rmoveto
          -39 callsubr
          endchar
        </CharString>
        <CharString name="uni021A">
          -37 261 -620 rmoveto
          -100 callsubr
          9 620 rmoveto
          -74 callsubr
          endchar
        </CharString>
        <CharString name="uni021B">
          -186 246 -623 rmoveto
          -100 callsubr
          63 620 rmoveto
          -40 callsubr
          endchar
        </CharString>
        <CharString name="uni0237">
          -292 37 -304 rmoveto
          -18 callsubr
          endchar
        </CharString>
        <CharString name="uni030F">
          -40 207 1167 rmoveto
          -15 callsubr
          183 hmoveto
          -14 callsubr
          endchar
        </CharString>
        <CharString name="uni0311">
          642 428 1294 rmoveto
          -13 callsubr
          endchar
        </CharString>
        <CharString name="uni1E02">
          227 404 1574 rmoveto
          -20 callsubr
          -369 -1574 rmoveto
          -96 callsubr
          -197 88 rmoveto
          -95 callsubr
          719 vmoveto
          -94 callsubr
          endchar
        </CharString>
        <CharString name="uni1E03">
          77 317 1557 rmoveto
          -20 callsubr
          -28 -1569 rmoveto
          -66 callsubr
          -19 85 rmoveto
          -65 callsubr
          endchar
        </CharString>
        <CharString name="uni1E0A">
          264 410 1574 rmoveto
          -20 callsubr
          -278 -1484 rmoveto
          -92 callsubr
          -101 -90 rmoveto
          -91 callsubr
          endchar
        </CharString>
        <CharString name="uni1E0B">
          81 298 1557 rmoveto
          -20 callsubr
          141 -1333 rmoveto
          -63 callsubr
          -27 282 rmoveto
          -62 callsubr
          endchar
        </CharString>
        <CharString name="uni1E1E">
          -2 303 1574 rmoveto
          -20 callsubr
          -272 -1574 rmoveto
          -89 callsubr
          endchar
        </CharString>
        <CharString name="uni1E1F">
          -201 177 1561 rmoveto
          -20 callsubr
          -122 -1561 rmoveto
          -59 callsubr
          endchar
        </CharString>
        <CharString name="uni1E40">
          392 464 1574 rmoveto
          -20 callsubr
          -440 -1574 rmoveto
          -82 callsubr
          endchar
        </CharString>
        <CharString name="uni1E41">
          409 477 1141 rmoveto
          -20 callsubr
          -456 -1141 rmoveto
          -48 callsubr
          endchar
        </CharString>
        <CharString name="uni1E56">
          161 372 1574 rmoveto
          -20 callsubr
          -341 -1574 rmoveto
          -78 callsubr
          30 631 rmoveto
          -77 callsubr
          endchar
        </CharString>
        <CharString name="uni1E57">
          83 318 1141 rmoveto
          -20 callsubr
          -297 -1542 rmoveto
          -44 callsubr
          188 474 rmoveto
          -43 callsubr
          endchar
        </CharString>
        <CharString name="uni1E60">
          107 314 1574 rmoveto
          -20 callsubr
          -25 -122 rmoveto
          -107 callsubr
          endchar
        </CharString>
        <CharString name="uni1E61">
          -74 227 1141 rmoveto
          -20 callsubr
          188 -889 rmoveto
          -41 callsubr
          endchar
        </CharString>
        <CharString name="uni1E6A">
          -37 251 1574 rmoveto
          -20 callsubr
          -81 -1574 rmoveto
          -74 callsubr
          endchar
        </CharString>
        <CharString name="uni1E6B">
          -186 175 1597 rmoveto
          -20 callsubr
          34 -1600 rmoveto
          -40 callsubr
          endchar
        </CharString>
        <CharString name="uniFB00">
          233 589 hmoveto
          -14 -12 29 43 hvcurveto
          815 vlineto
          20 0 5 -8 vhcurveto
          -311 hlineto
          -7 -2 -5 -20 hvcurveto
          -815 vlineto
          -43 -11 -29 -14 vhcurveto
          -55 hlineto
          -14 -12 29 43 hvcurveto
          815 vlineto
          20 0 5 -8 vhcurveto
          -50 hlineto
          -15 -9 3 25 hvcurveto
          37 vlineto
          24 9 5 15 vhcurveto
          50 hlineto
          8 0 8 22 332 46 71 151 hvcurveto
          9 0 48 -1 4 -1 9 -1 11 1 0 -28 rrcurveto
          -29 vlineto
          -33 0 -3 -13 vhcurveto
          -53 hlineto
          -90 -16 -47 -204 hvcurveto
          -81 vlineto
          -3 2 -3 1 vhcurveto
          317 hlineto
          8 0 8 22 332 46 71 151 hvcurveto
          9 0 48 -1 4 -1 9 -1 11 1 0 -28 rrcurveto
          -29 vlineto
          -33 0 -3 -13 vhcurveto
          -53 hlineto
          -90 -16 -47 -204 hvcurveto
          -81 vlineto
          -3 2 -3 1 vhcurveto
          140 hlineto
          15 7 -3 -23 hvcurveto
          -40 vlineto
          -24 -7 -4 -15 vhcurveto
          -134 hlineto
          -7 -2 -5 -20 hvcurveto
          -815 vlineto
          -43 -11 -29 -14 vhcurveto
          endchar
        </CharString>
        <CharString name="uniFB01">
          109 564 hmoveto
          -15 -8 10 43 hvcurveto
          859 -297 vlineto
          -7 -2 -5 -20 hvcurveto
          -815 vlineto
          -43 -11 -29 -14 vhcurveto
          -55 hlineto
          -14 -12 29 43 hvcurveto
          815 vlineto
          20 0 5 -8 vhcurveto
          -50 hlineto
          -15 -9 3 25 hvcurveto
          37 vlineto
          24 9 5 15 vhcurveto
          50 hlineto
          8 0 8 22 332 46 71 151 hvcurveto
          9 0 48 -1 4 -1 9 -1 11 1 0 -28 rrcurveto
          -29 vlineto
          -33 0 -3 -13 vhcurveto
          -53 hlineto
          -90 -16 -47 -204 hvcurveto
          -81 vlineto
          -3 2 -3 1 vhcurveto
          386 hlineto
          15 8 -10 -43 hvcurveto
          -900 vlineto
          -43 -8 -10 -15 vhcurveto
          -68 1174 rmoveto
          -54 callsubr
          endchar
        </CharString>
        <CharString name="uniFB02">
          108 566 hmoveto
          -14 -9 20 43 hvcurveto
          1282 -202 vlineto
          -90 -16 -48 -204 hvcurveto
          -81 vlineto
          -3 2 -3 1 vhcurveto
          140 hlineto
          15 7 -3 -23 hvcurveto
          -40 vlineto
          -24 -7 -4 -15 vhcurveto
          -134 hlineto
          -7 -2 -5 -20 hvcurveto
          -815 vlineto
          -43 -11 -29 -14 vhcurveto
          -55 hlineto
          -14 -12 29 43 hvcurveto
          815 vlineto
          20 0 5 -8 vhcurveto
          -50 hlineto
          -15 -9 3 25 hvcurveto
          37 vlineto
          24 9 5 15 vhcurveto
          50 hlineto
          8 0 8 22 332 46 70 151 hvcurveto
          300 hlineto
          15 8 -22 -43 hvcurveto
          -1310 vlineto
          -43 -8 -20 -15 vhcurveto
          endchar
        </CharString>
        <CharString name="uniFB03">
          543 998 hmoveto
          -15 -8 10 43 hvcurveto
          859 -297 vlineto
          -7 -2 -5 -20 hvcurveto
          -815 vlineto
          -43 -11 -29 -14 vhcurveto
          -55 hlineto
          -14 -12 29 43 hvcurveto
          815 vlineto
          20 0 5 -8 vhcurveto
          -311 hlineto
          -7 -2 -5 -20 hvcurveto
          -815 vlineto
          -43 -11 -29 -14 vhcurveto
          -55 hlineto
          -14 -12 29 43 hvcurveto
          815 vlineto
          20 0 5 -8 vhcurveto
          -50 hlineto
          -15 -9 3 25 hvcurveto
          37 vlineto
          24 9 5 15 vhcurveto
          50 hlineto
          8 0 8 22 332 46 71 151 hvcurveto
          9 0 48 -1 4 -1 9 -1 11 1 0 -28 rrcurveto
          -29 vlineto
          -33 0 -3 -13 vhcurveto
          -53 hlineto
          -90 -16 -47 -204 hvcurveto
          -81 vlineto
          -3 2 -3 1 vhcurveto
          317 hlineto
          8 0 8 22 332 46 71 151 hvcurveto
          9 0 48 -1 4 -1 9 -1 11 1 0 -28 rrcurveto
          -29 vlineto
          -33 0 -3 -13 vhcurveto
          -53 hlineto
          -90 -16 -47 -204 hvcurveto
          -81 vlineto
          -3 2 -3 1 vhcurveto
          386 hlineto
          15 8 -10 -43 hvcurveto
          -900 vlineto
          -43 -8 -10 -15 vhcurveto
          -68 1174 rmoveto
          -54 callsubr
          endchar
        </CharString>
        <CharString name="uogonek">
          40 601 -322 rmoveto
          -21 callsubr
          -310 310 rmoveto
          -39 callsubr
          endchar
        </CharString>
        <CharString name="uring">
          40 334 1189 rmoveto
          -24 callsubr
          -48 vmoveto
          -30 callsubr
          -43 -1153 rmoveto
          -39 callsubr
          endchar
        </CharString>
        <CharString name="utilde">
          40 514 1141 rmoveto
          -25 callsubr
          -223 -1153 rmoveto
          -39 callsubr
          endchar
        </CharString>
        <CharString name="v">
          -49 253 1 rmoveto
          -13 0 -11 26 -8 40 rrcurveto
          -167 873 rlineto
          -3 13 -1 12 0 10 rrcurveto
          20 5 11 9 vhcurveto
          68 hlineto
          16 0 8 -22 8 -43 rrcurveto
          126 -776 rlineto
          1 -6 1 -3 2 0 1 0 1 3 1 6 rrcurveto
          129 776 rlineto
          7 45 12 20 14 0 rrcurveto
          64 hlineto
          9 4 -10 -17 hvcurveto
          0 -10 -2 -13 -3 -16 rrcurveto
          -171 -873 rlineto
          -8 -40 -14 -26 -14 0 rrcurveto
          endchar
        </CharString>
        <CharString name="w">
          274 237 hmoveto
          -38 callsubr
          endchar
        </CharString>
        <CharString name="wacute">
          274 444 1141 rmoveto
          -29 callsubr
          -227 -1141 rmoveto
          -38 callsubr
          endchar
        </CharString>
        <CharString name="wcircumflex">
          274 368 1141 rmoveto
          -26 callsubr
          -131 -1141 rmoveto
          -38 callsubr
          endchar
        </CharString>
        <CharString name="wdieresis">
          274 321 1141 rmoveto
          -35 callsubr
          171 hmoveto
          -34 callsubr
          -352 -1141 rmoveto
          -38 callsubr
          endchar
        </CharString>
        <CharString name="wgrave">
          274 444 1141 rmoveto
          -69 callsubr
          -228 -1141 rmoveto
          -38 callsubr
          endchar
        </CharString>
        <CharString name="x">
          -35 60 hmoveto
          -5 -3 13 13 hvcurveto
          0 7 1 8 2 5 47 118 82 205 50 114 1 3 1 3 0 5 0 4 -1 5 -1 5 -66 152 -91 245 -19 53 -2 5 -2 8 0 7 rrcurveto
          14 4 14 5 vhcurveto
          67 hlineto
          16 0 12 -21 12 -29 19 -46 50 -148 58 -132 1 -3 1 -2 2 0 2 0 3 1 1 4 43 105 71 179 19 44 12 29 11 19 15 0 rrcurveto
          56 hlineto
          5 4 -12 -13 hvcurveto
          0 -8 -1 -8 -3 -5 -36 -92 -90 -207 -55 -130 -1 -3 -2 -3 0 -5 0 -4 2 -6 1 -6 43 -100 92 -219 55 -137 3 -6 1 -7 0 -7 rrcurveto
          -14 -4 -14 -5 vhcurveto
          -66 hlineto
          -16 0 -18 21 -11 29 -17 38 -58 172 -52 118 -2 4 -1 3 -3 0 -2 0 -2 -2 -6 -5 -45 -115 -67 -171 -19 -45 -14 -29 -13 -18 -17 0 rrcurveto
          endchar
        </CharString>
        <CharString name="y">
          -37 111 -199 rmoveto
          -37 callsubr
          endchar
        </CharString>
        <CharString name="yacute">
          -37 292 1141 rmoveto
          -29 callsubr
          -201 -1340 rmoveto
          -37 callsubr
          endchar
        </CharString>
        <CharString name="ycircumflex">
          -37 215 1141 rmoveto
          -26 callsubr
          -104 -1340 rmoveto
          -37 callsubr
          endchar
        </CharString>
        <CharString name="ydieresis">
          -37 167 1141 rmoveto
          -35 callsubr
          171 hmoveto
          -34 callsubr
          -324 -1340 rmoveto
          -37 callsubr
          endchar
        </CharString>
        <CharString name="yen">
          10 290 hmoveto
          -15 -8 9 43 hvcurveto
          318 -126 vlineto
          -15 -5 6 27 hvcurveto
          30 vlineto
          27 5 5 15 vhcurveto
          122 0 -4 102 -118 0 rlineto
          -15 -5 5 27 hvcurveto
          30 vlineto
          27 5 6 15 vhcurveto
          102 0 -196 718 rlineto
          -6 18 -1 8 0 10 rrcurveto
          13 8 9 12 vhcurveto
          55 hlineto
          15 0 18 -11 8 -31 rrcurveto
          169 -667 5 0 170 667 rlineto
          6 27 16 15 16 0 rrcurveto
          48 hlineto
          13 6 -9 -15 hvcurveto
          0 -10 0 -8 -5 -16 rrcurveto
          -196 -718 95 0 rlineto
          15 6 -6 -27 hvcurveto
          -30 vlineto
          -27 -6 -5 -15 vhcurveto
          -111 0 -4 -102 113 0 rlineto
          15 7 -5 -27 hvcurveto
          -30 vlineto
          -27 -7 -6 -15 vhcurveto
          -116 -318 hlineto
          -43 -8 -9 -15 vhcurveto
          endchar
        </CharString>
        <CharString name="ygrave">
          -37 291 1141 rmoveto
          -69 callsubr
          -201 -1340 rmoveto
          -37 callsubr
          endchar
        </CharString>
        <CharString name="z">
          -122 97 hmoveto
          -36 callsubr
          endchar
        </CharString>
        <CharString name="zacute">
          -122 259 1141 rmoveto
          -29 callsubr
          -182 -1141 rmoveto
          -36 callsubr
          endchar
        </CharString>
        <CharString name="zcaron">
          -122 259 1141 rmoveto
          -19 callsubr
          -181 -1141 rmoveto
          -36 callsubr
          endchar
        </CharString>
        <CharString name="zdotaccent">
          -122 219 1141 rmoveto
          -20 callsubr
          -222 -1141 rmoveto
          -36 callsubr
          endchar
        </CharString>
        <CharString name="zero">
          185 410 74 rmoveto
          138 65 168 487 467 -62 166 -142 -142 -63 -168 -465 -483 68 -172 138 hvcurveto
          -1 -94 rmoveto
          -177 -139 166 583 581 139 145 176 179 138 -141 -585 -583 -138 -166 -178 hvcurveto
          endchar
        </CharString>
</ttFont>
